<svg width="325" height="61" viewBox="0 0 325 61" fill="none" xmlns="http://www.w3.org/2000/svg">
<path d="M32.58 27.9H34.58V25.9H32.58V27.9ZM32.58 45V47H34.58V45H32.58ZM27.045 45H25.045V47H27.045V45ZM27.045 41.625H29.045V39.625H27.045V41.625ZM26.955 41.625V39.625H25.8679L25.2767 40.5372L26.955 41.625ZM23.04 45L23.758 46.8667L23.7735 46.8607L23.7889 46.8545L23.04 45ZM11.52 45.045L12.173 43.1546L12.1576 43.1493L12.1421 43.1442L11.52 45.045ZM7.335 42.885L6.09571 44.4548H6.09571L7.335 42.885ZM2.88 36.18L0.969383 36.7714L0.973539 36.7845L2.88 36.18ZM2.07 32.49L0.0794509 32.6842L0.0820826 32.7112L0.0854444 32.7381L2.07 32.49ZM2.115 25.74L0.135101 25.4572L0.132195 25.4775L0.129708 25.4979L2.115 25.74ZM3.06 22.05L4.93266 22.7522L4.93548 22.7447L4.93825 22.7372L3.06 22.05ZM4.905 18.495L3.25439 17.3656L3.25438 17.3656L4.905 18.495ZM7.92 15.48L9.07493 17.1128L9.07493 17.1128L7.92 15.48ZM12.375 13.41L12.9375 15.3293L12.9527 15.3248L12.9678 15.3201L12.375 13.41ZM24.39 13.59L23.6472 15.447H23.6472L24.39 13.59ZM31.095 19.71L32.9157 18.8824L32.9157 18.8824L31.095 19.71ZM32.31 23.715V25.715H34.6452L34.2862 23.4076L32.31 23.715ZM24.525 23.715L22.5349 23.914L22.715 25.715H24.525V23.715ZM24.255 22.41L26.1892 21.901H26.1891L24.255 22.41ZM21.555 19.35L20.6068 21.1109L20.6466 21.1324L20.6874 21.152L21.555 19.35ZM14.805 19.395L13.9774 17.5743L13.9667 17.5791L13.9561 17.5841L14.805 19.395ZM12.375 21.105L10.9297 19.7226L10.9137 19.7393L10.898 19.7565L12.375 21.105ZM10.935 23.4L12.7872 24.1546L12.7919 24.143L12.7965 24.1313L10.935 23.4ZM10.17 25.83L8.21763 25.3961L8.2114 25.4241L8.20599 25.4523L10.17 25.83ZM9.9 27.99L7.90206 27.8992L7.9 27.9446V27.99H9.9ZM9.945 30.825L7.94706 30.9158L7.94726 30.9201L9.945 30.825ZM10.215 32.94L8.25099 33.3177L8.25959 33.3624L8.27023 33.4067L10.215 32.94ZM10.98 35.28L9.12782 36.0346L9.13964 36.0636L9.15238 36.0923L10.98 35.28ZM12.42 37.53L10.9108 38.8424L10.9412 38.8774L10.9733 38.9109L12.42 37.53ZM14.76 39.15L13.9368 40.9727L13.9476 40.9776L13.9584 40.9823L14.76 39.15ZM20.655 39.42L20.1056 37.497L20.0962 37.4996L20.0868 37.5024L20.655 39.42ZM22.905 38.34L24.0813 39.9575L24.0876 39.9529L24.0938 39.9484L22.905 38.34ZM24.615 36.405L22.9117 35.3568L22.8968 35.381L22.8826 35.4056L24.615 36.405ZM25.47 33.615L27.4631 33.7811L27.6436 31.615H25.47V33.615ZM19.17 33.615H17.17V35.615H19.17V33.615ZM19.17 27.9V25.9H17.17V27.9H19.17ZM30.58 27.9V45H34.58V27.9H30.58ZM32.58 43H27.045V47H32.58V43ZM29.045 45V41.625H25.045V45H29.045ZM27.045 39.625H26.955V43.625H27.045V39.625ZM25.2767 40.5372C24.4162 41.8648 23.4155 42.6914 22.2911 43.1455L23.7889 46.8545C25.7845 46.0486 27.3938 44.6252 28.6333 42.7128L25.2767 40.5372ZM22.322 43.1333C21.05 43.6225 19.4317 43.9 17.415 43.9V47.9C19.7783 47.9 21.91 47.5775 23.758 46.8667L22.322 43.1333ZM17.415 43.9C15.293 43.9 13.5598 43.6337 12.173 43.1546L10.867 46.9354C12.7802 47.5963 14.977 47.9 17.415 47.9V43.9ZM12.1421 43.1442C10.6732 42.6635 9.49749 42.0441 8.57429 41.3152L6.09571 44.4548C7.45251 45.5259 9.06685 46.3465 10.8979 46.9458L12.1421 43.1442ZM8.57429 41.3152C7.60771 40.5522 6.83851 39.6909 6.24832 38.7318L2.84168 40.8282C3.69149 42.2091 4.78229 43.4179 6.09571 44.4548L8.57429 41.3152ZM6.24832 38.7318C5.60838 37.6919 5.12403 36.6402 4.78646 35.5755L0.973539 36.7845C1.41597 38.1798 2.04162 39.5281 2.84168 40.8282L6.24832 38.7318ZM4.79057 35.5886C4.43216 34.4307 4.18877 33.3156 4.05456 32.2419L0.0854444 32.7381C0.251233 34.0644 0.547839 35.4093 0.969428 36.7714L4.79057 35.5886ZM4.06055 32.2958C3.94538 31.1153 3.89 30.0716 3.89 29.16H-0.11C-0.11 30.2284 -0.0453756 31.4047 0.0794509 32.6842L4.06055 32.2958ZM3.89 29.16C3.89 28.2038 3.9584 27.1456 4.10029 25.9821L0.129708 25.4979C-0.0283979 26.7944 -0.11 28.0162 -0.11 29.16H3.89ZM4.0949 26.0228C4.25429 24.9071 4.53312 23.8177 4.93266 22.7522L1.18734 21.3478C0.68688 22.6823 0.33571 24.0529 0.135101 25.4572L4.0949 26.0228ZM4.93825 22.7372C5.32803 21.6718 5.86447 20.6345 6.55562 19.6244L3.25438 17.3656C2.38553 18.6355 1.69197 19.9682 1.18175 21.3628L4.93825 22.7372ZM6.55561 19.6244C7.18992 18.6973 8.02113 17.8582 9.07493 17.1128L6.76507 13.8472C5.35887 14.8418 4.18008 16.0127 3.25439 17.3656L6.55561 19.6244ZM9.07493 17.1128C10.0922 16.3933 11.3677 15.7894 12.9375 15.3293L11.8125 11.4907C9.90234 12.0506 8.20779 12.8267 6.76507 13.8472L9.07493 17.1128ZM12.9678 15.3201C14.4703 14.8538 16.3019 14.6 18.495 14.6V10.6C16.0081 10.6 13.7597 10.8861 11.7822 11.4999L12.9678 15.3201ZM18.495 14.6C20.5894 14.6 22.2899 14.904 23.6472 15.447L25.1328 11.733C23.1901 10.956 20.9606 10.6 18.495 10.6V14.6ZM23.6472 15.447C25.1007 16.0284 26.2561 16.757 27.1556 17.6079L29.9044 14.7021C28.5839 13.453 26.9793 12.4716 25.1328 11.733L23.6472 15.447ZM27.1556 17.6079C28.0881 18.49 28.7869 19.4654 29.2743 20.5376L32.9157 18.8824C32.2031 17.3146 31.1919 15.92 29.9044 14.7021L27.1556 17.6079ZM29.2743 20.5376C29.8036 21.7022 30.1534 22.8627 30.3338 24.0224L34.2862 23.4076C34.0466 21.8673 33.5864 20.3578 32.9157 18.8824L29.2743 20.5376ZM32.31 21.715H24.525V25.715H32.31V21.715ZM26.5151 23.516C26.4689 23.0544 26.3457 22.496 26.1892 21.901L22.3209 22.919C22.4643 23.464 22.5211 23.7756 22.5349 23.914L26.5151 23.516ZM26.1891 21.901C25.9603 21.0313 25.5381 20.2364 24.9787 19.5171L21.8213 21.9729C22.1019 22.3336 22.2497 22.6487 22.3209 22.919L26.1891 21.901ZM24.9787 19.5171C24.3193 18.6693 23.4269 18.0315 22.4226 17.548L20.6874 21.152C21.3031 21.4485 21.6407 21.7407 21.8213 21.9729L24.9787 19.5171ZM22.5032 17.5891C21.329 16.9568 19.9304 16.72 18.45 16.72V20.72C19.5496 20.72 20.221 20.9032 20.6068 21.1109L22.5032 17.5891ZM18.45 16.72C16.8126 16.72 15.2971 16.9744 13.9774 17.5743L15.6326 21.2157C16.2929 20.9156 17.2074 20.72 18.45 20.72V16.72ZM13.9561 17.5841C12.7972 18.1273 11.7782 18.8355 10.9297 19.7226L13.8203 22.4874C14.2918 21.9945 14.8928 21.5627 15.6539 21.2059L13.9561 17.5841ZM10.898 19.7565C10.1091 20.6205 9.49603 21.5932 9.0735 22.6687L12.7965 24.1313C13.034 23.5268 13.3809 22.9695 13.852 22.4535L10.898 19.7565ZM9.08282 22.6454C8.71275 23.5537 8.42324 24.4709 8.21763 25.3961L12.1224 26.2639C12.2768 25.5691 12.4972 24.8663 12.7872 24.1546L9.08282 22.6454ZM8.20599 25.4523C8.04129 26.3087 7.93721 27.1259 7.90206 27.8992L11.8979 28.0808C11.9228 27.5341 11.9987 26.9113 12.134 26.2077L8.20599 25.4523ZM7.9 27.99C7.9 27.9912 7.9 27.9925 7.9 27.9937C7.9 27.9949 7.9 27.9961 7.9 27.9974C7.9 27.9986 7.9 27.9998 7.9 28.0011C7.9 28.0023 7.9 28.0035 7.9 28.0047C7.9 28.006 7.9 28.0072 7.9 28.0084C7.9 28.0096 7.9 28.0109 7.9 28.0121C7.9 28.0133 7.9 28.0145 7.9 28.0157C7.9 28.017 7.9 28.0182 7.9 28.0194C7.9 28.0206 7.9 28.0218 7.9 28.0231C7.9 28.0243 7.9 28.0255 7.9 28.0267C7.9 28.0279 7.9 28.0292 7.9 28.0304C7.9 28.0316 7.9 28.0328 7.9 28.034C7.9 28.0352 7.9 28.0365 7.9 28.0377C7.9 28.0389 7.9 28.0401 7.9 28.0413C7.9 28.0425 7.9 28.0437 7.9 28.0449C7.9 28.0462 7.9 28.0474 7.9 28.0486C7.9 28.0498 7.9 28.051 7.9 28.0522C7.9 28.0534 7.9 28.0546 7.9 28.0558C7.9 28.057 7.9 28.0582 7.9 28.0595C7.9 28.0607 7.9 28.0619 7.9 28.0631C7.9 28.0643 7.9 28.0655 7.9 28.0667C7.9 28.0679 7.9 28.0691 7.9 28.0703C7.9 28.0715 7.9 28.0727 7.9 28.0739C7.9 28.0751 7.9 28.0763 7.9 28.0775C7.9 28.0787 7.9 28.0799 7.9 28.0811C7.9 28.0823 7.9 28.0835 7.9 28.0847C7.9 28.0859 7.9 28.0871 7.9 28.0883C7.9 28.0895 7.9 28.0907 7.9 28.0919C7.9 28.0931 7.9 28.0943 7.9 28.0955C7.9 28.0967 7.9 28.0978 7.9 28.099C7.9 28.1002 7.9 28.1014 7.9 28.1026C7.9 28.1038 7.9 28.105 7.9 28.1062C7.9 28.1074 7.9 28.1086 7.9 28.1098C7.9 28.1109 7.9 28.1121 7.9 28.1133C7.9 28.1145 7.9 28.1157 7.9 28.1169C7.9 28.1181 7.9 28.1193 7.9 28.1204C7.9 28.1216 7.9 28.1228 7.9 28.124C7.9 28.1252 7.9 28.1264 7.9 28.1275C7.9 28.1287 7.9 28.1299 7.9 28.1311C7.9 28.1323 7.9 28.1335 7.9 28.1346C7.9 28.1358 7.9 28.137 7.9 28.1382C7.9 28.1394 7.9 28.1405 7.9 28.1417C7.9 28.1429 7.9 28.1441 7.9 28.1452C7.9 28.1464 7.9 28.1476 7.9 28.1488C7.9 28.1499 7.9 28.1511 7.9 28.1523C7.9 28.1535 7.9 28.1546 7.9 28.1558C7.9 28.157 7.9 28.1582 7.9 28.1593C7.9 28.1605 7.9 28.1617 7.9 28.1628C7.9 28.164 7.9 28.1652 7.9 28.1663C7.9 28.1675 7.9 28.1687 7.9 28.1698C7.9 28.171 7.9 28.1722 7.9 28.1733C7.9 28.1745 7.9 28.1757 7.9 28.1768C7.9 28.178 7.9 28.1792 7.9 28.1803C7.9 28.1815 7.9 28.1827 7.9 28.1838C7.9 28.185 7.9 28.1862 7.9 28.1873C7.9 28.1885 7.9 28.1896 7.9 28.1908C7.9 28.192 7.9 28.1931 7.9 28.1943C7.9 28.1954 7.9 28.1966 7.9 28.1977C7.9 28.1989 7.9 28.2001 7.9 28.2012C7.9 28.2024 7.9 28.2035 7.9 28.2047C7.9 28.2058 7.9 28.207 7.9 28.2081C7.9 28.2093 7.9 28.2105 7.9 28.2116C7.9 28.2128 7.9 28.2139 7.9 28.2151C7.9 28.2162 7.9 28.2174 7.9 28.2185C7.9 28.2197 7.9 28.2208 7.9 28.222C7.9 28.2231 7.9 28.2243 7.9 28.2254C7.9 28.2266 7.9 28.2277 7.9 28.2288C7.9 28.23 7.9 28.2311 7.9 28.2323C7.9 28.2334 7.9 28.2346 7.9 28.2357C7.9 28.2369 7.9 28.238 7.9 28.2391C7.9 28.2403 7.9 28.2414 7.9 28.2426C7.9 28.2437 7.9 28.2449 7.9 28.246C7.9 28.2471 7.9 28.2483 7.9 28.2494C7.9 28.2505 7.9 28.2517 7.9 28.2528C7.9 28.254 7.9 28.2551 7.9 28.2562C7.9 28.2574 7.9 28.2585 7.9 28.2596C7.9 28.2608 7.9 28.2619 7.9 28.263C7.9 28.2642 7.9 28.2653 7.9 28.2664C7.9 28.2676 7.9 28.2687 7.9 28.2698C7.9 28.271 7.9 28.2721 7.9 28.2732C7.9 28.2744 7.9 28.2755 7.9 28.2766C7.9 28.2777 7.9 28.2789 7.9 28.28C7.9 28.2811 7.9 28.2823 7.9 28.2834C7.9 28.2845 7.9 28.2856 7.9 28.2868C7.9 28.2879 7.9 28.289 7.9 28.2901C7.9 28.2912 7.9 28.2924 7.9 28.2935C7.9 28.2946 7.9 28.2957 7.9 28.2969C7.9 28.298 7.9 28.2991 7.9 28.3002C7.9 28.3013 7.9 28.3025 7.9 28.3036C7.9 28.3047 7.9 28.3058 7.9 28.3069C7.9 28.308 7.9 28.3092 7.9 28.3103C7.9 28.3114 7.9 28.3125 7.9 28.3136C7.9 28.3147 7.9 28.3159 7.9 28.317C7.9 28.3181 7.9 28.3192 7.9 28.3203C7.9 28.3214 7.9 28.3225 7.9 28.3236C7.9 28.3248 7.9 28.3259 7.9 28.327C7.9 28.3281 7.9 28.3292 7.9 28.3303C7.9 28.3314 7.9 28.3325 7.9 28.3336C7.9 28.3347 7.9 28.3358 7.9 28.3369C7.9 28.338 7.9 28.3392 7.9 28.3403C7.9 28.3414 7.9 28.3425 7.9 28.3436C7.9 28.3447 7.9 28.3458 7.9 28.3469C7.9 28.348 7.9 28.3491 7.9 28.3502C7.9 28.3513 7.9 28.3524 7.9 28.3535C7.9 28.3546 7.9 28.3557 7.9 28.3568C7.9 28.3579 7.9 28.359 7.9 28.3601C7.9 28.3612 7.9 28.3623 7.9 28.3634C7.9 28.3645 7.9 28.3656 7.9 28.3666C7.9 28.3677 7.9 28.3688 7.9 28.3699C7.9 28.371 7.9 28.3721 7.9 28.3732C7.9 28.3743 7.9 28.3754 7.9 28.3765C7.9 28.3776 7.9 28.3787 7.9 28.3797C7.9 28.3808 7.9 28.3819 7.9 28.383C7.9 28.3841 7.9 28.3852 7.9 28.3863C7.9 28.3874 7.9 28.3885 7.9 28.3895C7.9 28.3906 7.9 28.3917 7.9 28.3928C7.9 28.3939 7.9 28.395 7.9 28.396C7.9 28.3971 7.9 28.3982 7.9 28.3993C7.9 28.4004 7.9 28.4015 7.9 28.4025C7.9 28.4036 7.9 28.4047 7.9 28.4058C7.9 28.4069 7.9 28.4079 7.9 28.409C7.9 28.4101 7.9 28.4112 7.9 28.4122C7.9 28.4133 7.9 28.4144 7.9 28.4155C7.9 28.4165 7.9 28.4176 7.9 28.4187C7.9 28.4198 7.9 28.4208 7.9 28.4219C7.9 28.423 7.9 28.4241 7.9 28.4251C7.9 28.4262 7.9 28.4273 7.9 28.4284C7.9 28.4294 7.9 28.4305 7.9 28.4316C7.9 28.4326 7.9 28.4337 7.9 28.4348C7.9 28.4358 7.9 28.4369 7.9 28.438C7.9 28.439 7.9 28.4401 7.9 28.4412C7.9 28.4422 7.9 28.4433 7.9 28.4444C7.9 28.4454 7.9 28.4465 7.9 28.4476C7.9 28.4486 7.9 28.4497 7.9 28.4507C7.9 28.4518 7.9 28.4529 7.9 28.4539C7.9 28.455 7.9 28.456 7.9 28.4571C7.9 28.4582 7.9 28.4592 7.9 28.4603C7.9 28.4613 7.9 28.4624 7.9 28.4635C7.9 28.4645 7.9 28.4656 7.9 28.4666C7.9 28.4677 7.9 28.4687 7.9 28.4698C7.9 28.4708 7.9 28.4719 7.9 28.4729C7.9 28.474 7.9 28.4751 7.9 28.4761C7.9 28.4772 7.9 28.4782 7.9 28.4793C7.9 28.4803 7.9 28.4814 7.9 28.4824C7.9 28.4835 7.9 28.4845 7.9 28.4856C7.9 28.4866 7.9 28.4876 7.9 28.4887C7.9 28.4897 7.9 28.4908 7.9 28.4918C7.9 28.4929 7.9 28.4939 7.9 28.495C7.9 28.496 7.9 28.4971 7.9 28.4981C7.9 28.4991 7.9 28.5002 7.9 28.5012C7.9 28.5023 7.9 28.5033 7.9 28.5043C7.9 28.5054 7.9 28.5064 7.9 28.5075C7.9 28.5085 7.9 28.5095 7.9 28.5106C7.9 28.5116 7.9 28.5127 7.9 28.5137C7.9 28.5147 7.9 28.5158 7.9 28.5168C7.9 28.5178 7.9 28.5189 7.9 28.5199C7.9 28.5209 7.9 28.522 7.9 28.523C7.9 28.524 7.9 28.5251 7.9 28.5261C7.9 28.5271 7.9 28.5282 7.9 28.5292C7.9 28.5302 7.9 28.5313 7.9 28.5323C7.9 28.5333 7.9 28.5343 7.9 28.5354C7.9 28.5364 7.9 28.5374 7.9 28.5385C7.9 28.5395 7.9 28.5405 7.9 28.5415C7.9 28.5426 7.9 28.5436 7.9 28.5446C7.9 28.5456 7.9 28.5466 7.9 28.5477C7.9 28.5487 7.9 28.5497 7.9 28.5507C7.9 28.5518 7.9 28.5528 7.9 28.5538C7.9 28.5548 7.9 28.5558 7.9 28.5569C7.9 28.5579 7.9 28.5589 7.9 28.5599C7.9 28.5609 7.9 28.562 7.9 28.563C7.9 28.564 7.9 28.565 7.9 28.566C7.9 28.567 7.9 28.568 7.9 28.5691C7.9 28.5701 7.9 28.5711 7.9 28.5721C7.9 28.5731 7.9 28.5741 7.9 28.5751C7.9 28.5761 7.9 28.5772 7.9 28.5782C7.9 28.5792 7.9 28.5802 7.9 28.5812C7.9 28.5822 7.9 28.5832 7.9 28.5842C7.9 28.5852 7.9 28.5862 7.9 28.5872C7.9 28.5882 7.9 28.5893 7.9 28.5903C7.9 28.5913 7.9 28.5923 7.9 28.5933C7.9 28.5943 7.9 28.5953 7.9 28.5963C7.9 28.5973 7.9 28.5983 7.9 28.5993C7.9 28.6003 7.9 28.6013 7.9 28.6023C7.9 28.6033 7.9 28.6043 7.9 28.6053C7.9 28.6063 7.9 28.6073 7.9 28.6083C7.9 28.6093 7.9 28.6103 7.9 28.6113C7.9 28.6123 7.9 28.6133 7.9 28.6143C7.9 28.6153 7.9 28.6163 7.9 28.6172C7.9 28.6182 7.9 28.6192 7.9 28.6202C7.9 28.6212 7.9 28.6222 7.9 28.6232C7.9 28.6242 7.9 28.6252 7.9 28.6262C7.9 28.6272 7.9 28.6282 7.9 28.6291C7.9 28.6301 7.9 28.6311 7.9 28.6321C7.9 28.6331 7.9 28.6341 7.9 28.6351C7.9 28.6361 7.9 28.637 7.9 28.638C7.9 28.639 7.9 28.64 7.9 28.641C7.9 28.642 7.9 28.6429 7.9 28.6439C7.9 28.6449 7.9 28.6459 7.9 28.6469C7.9 28.6479 7.9 28.6488 7.9 28.6498C7.9 28.6508 7.9 28.6518 7.9 28.6528C7.9 28.6537 7.9 28.6547 7.9 28.6557C7.9 28.6567 7.9 28.6576 7.9 28.6586C7.9 28.6596 7.9 28.6606 7.9 28.6615C7.9 28.6625 7.9 28.6635 7.9 28.6645C7.9 28.6654 7.9 28.6664 7.9 28.6674C7.9 28.6684 7.9 28.6693 7.9 28.6703C7.9 28.6713 7.9 28.6722 7.9 28.6732C7.9 28.6742 7.9 28.6751 7.9 28.6761C7.9 28.6771 7.9 28.6781 7.9 28.679C7.9 28.68 7.9 28.681 7.9 28.6819C7.9 28.6829 7.9 28.6839 7.9 28.6848C7.9 28.6858 7.9 28.6867 7.9 28.6877C7.9 28.6887 7.9 28.6896 7.9 28.6906C7.9 28.6916 7.9 28.6925 7.9 28.6935C7.9 28.6944 7.9 28.6954 7.9 28.6964C7.9 28.6973 7.9 28.6983 7.9 28.6992C7.9 28.7002 7.9 28.7012 7.9 28.7021C7.9 28.7031 7.9 28.704 7.9 28.705C7.9 28.7059 7.9 28.7069 7.9 28.7079C7.9 28.7088 7.9 28.7098 7.9 28.7107C7.9 28.7117 7.9 28.7126 7.9 28.7136C7.9 28.7145 7.9 28.7155 7.9 28.7164C7.9 28.7174 7.9 28.7183 7.9 28.7193C7.9 28.7202 7.9 28.7212 7.9 28.7221C7.9 28.7231 7.9 28.724 7.9 28.725C7.9 28.7259 7.9 28.7269 7.9 28.7278C7.9 28.7288 7.9 28.7297 7.9 28.7306C7.9 28.7316 7.9 28.7325 7.9 28.7335C7.9 28.7344 7.9 28.7354 7.9 28.7363C7.9 28.7373 7.9 28.7382 7.9 28.7391C7.9 28.7401 7.9 28.741 7.9 28.742C7.9 28.7429 7.9 28.7438 7.9 28.7448C7.9 28.7457 7.9 28.7466 7.9 28.7476C7.9 28.7485 7.9 28.7495 7.9 28.7504C7.9 28.7513 7.9 28.7523 7.9 28.7532C7.9 28.7541 7.9 28.7551 7.9 28.756C7.9 28.7569 7.9 28.7579 7.9 28.7588C7.9 28.7597 7.9 28.7607 7.9 28.7616C7.9 28.7625 7.9 28.7635 7.9 28.7644C7.9 28.7653 7.9 28.7662 7.9 28.7672C7.9 28.7681 7.9 28.769 7.9 28.77C7.9 28.7709 7.9 28.7718 7.9 28.7727C7.9 28.7737 7.9 28.7746 7.9 28.7755C7.9 28.7764 7.9 28.7774 7.9 28.7783C7.9 28.7792 7.9 28.7801 7.9 28.781C7.9 28.782 7.9 28.7829 7.9 28.7838C7.9 28.7847 7.9 28.7857 7.9 28.7866C7.9 28.7875 7.9 28.7884 7.9 28.7893C7.9 28.7902 7.9 28.7912 7.9 28.7921C7.9 28.793 7.9 28.7939 7.9 28.7948C7.9 28.7957 7.9 28.7967 7.9 28.7976C7.9 28.7985 7.9 28.7994 7.9 28.8003C7.9 28.8012 7.9 28.8021 7.9 28.8031C7.9 28.804 7.9 28.8049 7.9 28.8058C7.9 28.8067 7.9 28.8076 7.9 28.8085C7.9 28.8094 7.9 28.8103 7.9 28.8112C7.9 28.8122 7.9 28.8131 7.9 28.814C7.9 28.8149 7.9 28.8158 7.9 28.8167C7.9 28.8176 7.9 28.8185 7.9 28.8194C7.9 28.8203 7.9 28.8212 7.9 28.8221C7.9 28.823 7.9 28.8239 7.9 28.8248C7.9 28.8257 7.9 28.8266 7.9 28.8275C7.9 28.8284 7.9 28.8293 7.9 28.8302C7.9 28.8311 7.9 28.832 7.9 28.8329C7.9 28.8338 7.9 28.8347 7.9 28.8356C7.9 28.8365 7.9 28.8374 7.9 28.8383C7.9 28.8392 7.9 28.8401 7.9 28.841C7.9 28.8419 7.9 28.8428 7.9 28.8437C7.9 28.8446 7.9 28.8455 7.9 28.8463C7.9 28.8472 7.9 28.8481 7.9 28.849C7.9 28.8499 7.9 28.8508 7.9 28.8517C7.9 28.8526 7.9 28.8535 7.9 28.8544C7.9 28.8552 7.9 28.8561 7.9 28.857C7.9 28.8579 7.9 28.8588 7.9 28.8597C7.9 28.8606 7.9 28.8615 7.9 28.8623C7.9 28.8632 7.9 28.8641 7.9 28.865C7.9 28.8659 7.9 28.8668 7.9 28.8676C7.9 28.8685 7.9 28.8694 7.9 28.8703C7.9 28.8712 7.9 28.872 7.9 28.8729C7.9 28.8738 7.9 28.8747 7.9 28.8756C7.9 28.8764 7.9 28.8773 7.9 28.8782C7.9 28.8791 7.9 28.8799 7.9 28.8808C7.9 28.8817 7.9 28.8826 7.9 28.8834C7.9 28.8843 7.9 28.8852 7.9 28.8861C7.9 28.8869 7.9 28.8878 7.9 28.8887C7.9 28.8895 7.9 28.8904 7.9 28.8913C7.9 28.8922 7.9 28.893 7.9 28.8939C7.9 28.8948 7.9 28.8956 7.9 28.8965C7.9 28.8974 7.9 28.8982 7.9 28.8991C7.9 28.9 7.9 28.9008 7.9 28.9017C7.9 28.9026 7.9 28.9034 7.9 28.9043C7.9 28.9052 7.9 28.906 7.9 28.9069C7.9 28.9078 7.9 28.9086 7.9 28.9095C7.9 28.9103 7.9 28.9112 7.9 28.9121C7.9 28.9129 7.9 28.9138 7.9 28.9146C7.9 28.9155 7.9 28.9164 7.9 28.9172C7.9 28.9181 7.9 28.9189 7.9 28.9198C7.9 28.9206 7.9 28.9215 7.9 28.9224C7.9 28.9232 7.9 28.9241 7.9 28.9249C7.9 28.9258 7.9 28.9266 7.9 28.9275C7.9 28.9283 7.9 28.9292 7.9 28.93C7.9 28.9309 7.9 28.9317 7.9 28.9326C7.9 28.9334 7.9 28.9343 7.9 28.9351C7.9 28.936 7.9 28.9368 7.9 28.9377C7.9 28.9385 7.9 28.9394 7.9 28.9402C7.9 28.9411 7.9 28.9419 7.9 28.9428C7.9 28.9436 7.9 28.9444 7.9 28.9453C7.9 28.9461 7.9 28.947 7.9 28.9478C7.9 28.9487 7.9 28.9495 7.9 28.9503C7.9 28.9512 7.9 28.952 7.9 28.9529C7.9 28.9537 7.9 28.9546 7.9 28.9554C7.9 28.9562 7.9 28.9571 7.9 28.9579C7.9 28.9587 7.9 28.9596 7.9 28.9604C7.9 28.9613 7.9 28.9621 7.9 28.9629C7.9 28.9638 7.9 28.9646 7.9 28.9654C7.9 28.9663 7.9 28.9671 7.9 28.9679C7.9 28.9688 7.9 28.9696 7.9 28.9704C7.9 28.9713 7.9 28.9721 7.9 28.9729C7.9 28.9737 7.9 28.9746 7.9 28.9754C7.9 28.9762 7.9 28.9771 7.9 28.9779C7.9 28.9787 7.9 28.9795 7.9 28.9804C7.9 28.9812 7.9 28.982 7.9 28.9828C7.9 28.9837 7.9 28.9845 7.9 28.9853C7.9 28.9861 7.9 28.987 7.9 28.9878C7.9 28.9886 7.9 28.9894 7.9 28.9903C7.9 28.9911 7.9 28.9919 7.9 28.9927C7.9 28.9935 7.9 28.9944 7.9 28.9952C7.9 28.996 7.9 28.9968 7.9 28.9976C7.9 28.9984 7.9 28.9993 7.9 29.0001C7.9 29.0009 7.9 29.0017 7.9 29.0025C7.9 29.0033 7.9 29.0042 7.9 29.005C7.9 29.0058 7.9 29.0066 7.9 29.0074C7.9 29.0082 7.9 29.009 7.9 29.0098C7.9 29.0107 7.9 29.0115 7.9 29.0123C7.9 29.0131 7.9 29.0139 7.9 29.0147C7.9 29.0155 7.9 29.0163 7.9 29.0171C7.9 29.0179 7.9 29.0187 7.9 29.0196C7.9 29.0204 7.9 29.0212 7.9 29.022C7.9 29.0228 7.9 29.0236 7.9 29.0244C7.9 29.0252 7.9 29.026 7.9 29.0268C7.9 29.0276 7.9 29.0284 7.9 29.0292C7.9 29.03 7.9 29.0308 7.9 29.0316C7.9 29.0324 7.9 29.0332 7.9 29.034C7.9 29.0348 7.9 29.0356 7.9 29.0364C7.9 29.0372 7.9 29.038 7.9 29.0388C7.9 29.0396 7.9 29.0404 7.9 29.0412C7.9 29.042 7.9 29.0428 7.9 29.0436C7.9 29.0443 7.9 29.0451 7.9 29.0459C7.9 29.0467 7.9 29.0475 7.9 29.0483C7.9 29.0491 7.9 29.0499 7.9 29.0507C7.9 29.0515 7.9 29.0523 7.9 29.053C7.9 29.0538 7.9 29.0546 7.9 29.0554C7.9 29.0562 7.9 29.057 7.9 29.0578C7.9 29.0586 7.9 29.0593 7.9 29.0601C7.9 29.0609 7.9 29.0617 7.9 29.0625C7.9 29.0633 7.9 29.064 7.9 29.0648C7.9 29.0656 7.9 29.0664 7.9 29.0672C7.9 29.068 7.9 29.0687 7.9 29.0695C7.9 29.0703 7.9 29.0711 7.9 29.0719C7.9 29.0726 7.9 29.0734 7.9 29.0742C7.9 29.075 7.9 29.0757 7.9 29.0765C7.9 29.0773 7.9 29.0781 7.9 29.0788C7.9 29.0796 7.9 29.0804 7.9 29.0812C7.9 29.0819 7.9 29.0827 7.9 29.0835C7.9 29.0843 7.9 29.085 7.9 29.0858C7.9 29.0866 7.9 29.0873 7.9 29.0881C7.9 29.0889 7.9 29.0896 7.9 29.0904C7.9 29.0912 7.9 29.092 7.9 29.0927C7.9 29.0935 7.9 29.0943 7.9 29.095C7.9 29.0958 7.9 29.0965 7.9 29.0973C7.9 29.0981 7.9 29.0988 7.9 29.0996C7.9 29.1004 7.9 29.1011 7.9 29.1019C7.9 29.1027 7.9 29.1034 7.9 29.1042C7.9 29.1049 7.9 29.1057 7.9 29.1065C7.9 29.1072 7.9 29.108 7.9 29.1087C7.9 29.1095 7.9 29.1103 7.9 29.111C7.9 29.1118 7.9 29.1125 7.9 29.1133C7.9 29.114 7.9 29.1148 7.9 29.1155C7.9 29.1163 7.9 29.1171 7.9 29.1178C7.9 29.1186 7.9 29.1193 7.9 29.1201C7.9 29.1208 7.9 29.1216 7.9 29.1223C7.9 29.1231 7.9 29.1238 7.9 29.1246C7.9 29.1253 7.9 29.1261 7.9 29.1268C7.9 29.1276 7.9 29.1283 7.9 29.1291C7.9 29.1298 7.9 29.1306 7.9 29.1313C7.9 29.132 7.9 29.1328 7.9 29.1335C7.9 29.1343 7.9 29.135 7.9 29.1358C7.9 29.1365 7.9 29.1373 7.9 29.138C7.9 29.1387 7.9 29.1395 7.9 29.1402C7.9 29.141 7.9 29.1417 7.9 29.1424C7.9 29.1432 7.9 29.1439 7.9 29.1447C7.9 29.1454 7.9 29.1461 7.9 29.1469C7.9 29.1476 7.9 29.1483 7.9 29.1491C7.9 29.1498 7.9 29.1506 7.9 29.1513C7.9 29.152 7.9 29.1528 7.9 29.1535C7.9 29.1542 7.9 29.155 7.9 29.1557C7.9 29.1564 7.9 29.1571 7.9 29.1579C7.9 29.1586 7.9 29.1593 7.9 29.1601C7.9 29.1608 7.9 29.1615 7.9 29.1623C7.9 29.163 7.9 29.1637 7.9 29.1644C7.9 29.1652 7.9 29.1659 7.9 29.1666C7.9 29.1673 7.9 29.1681 7.9 29.1688C7.9 29.1695 7.9 29.1702 7.9 29.171C7.9 29.1717 7.9 29.1724 7.9 29.1731C7.9 29.1739 7.9 29.1746 7.9 29.1753C7.9 29.176 7.9 29.1767 7.9 29.1775C7.9 29.1782 7.9 29.1789 7.9 29.1796C7.9 29.1803 7.9 29.181 7.9 29.1818C7.9 29.1825 7.9 29.1832 7.9 29.1839C7.9 29.1846 7.9 29.1853 7.9 29.1861C7.9 29.1868 7.9 29.1875 7.9 29.1882C7.9 29.1889 7.9 29.1896 7.9 29.1903C7.9 29.191 7.9 29.1918 7.9 29.1925C7.9 29.1932 7.9 29.1939 7.9 29.1946C7.9 29.1953 7.9 29.196 7.9 29.1967C7.9 29.1974 7.9 29.1981 7.9 29.1988C7.9 29.1996 7.9 29.2003 7.9 29.201C7.9 29.2017 7.9 29.2024 7.9 29.2031C7.9 29.2038 7.9 29.2045 7.9 29.2052C7.9 29.2059 7.9 29.2066 7.9 29.2073C7.9 29.208 7.9 29.2087 7.9 29.2094C7.9 29.2101 7.9 29.2108 7.9 29.2115C7.9 29.2122 7.9 29.2129 7.9 29.2136C7.9 29.2143 7.9 29.215 7.9 29.2157C7.9 29.2164 7.9 29.2171 7.9 29.2178C7.9 29.2185 7.9 29.2192 7.9 29.2199C7.9 29.2206 7.9 29.2213 7.9 29.2219C7.9 29.2226 7.9 29.2233 7.9 29.224C7.9 29.2247 7.9 29.2254 7.9 29.2261C7.9 29.2268 7.9 29.2275 7.9 29.2282C7.9 29.2289 7.9 29.2295 7.9 29.2302C7.9 29.2309 7.9 29.2316 7.9 29.2323C7.9 29.233 7.9 29.2337 7.9 29.2343C7.9 29.235 7.9 29.2357 7.9 29.2364C7.9 29.2371 7.9 29.2378 7.9 29.2385C7.9 29.2391 7.9 29.2398 7.9 29.2405C7.9 29.2412 7.9 29.2419 7.9 29.2425C7.9 29.2432 7.9 29.2439 7.9 29.2446C7.9 29.2453 7.9 29.2459 7.9 29.2466C7.9 29.2473 7.9 29.248 7.9 29.2486C7.9 29.2493 7.9 29.25 7.9 29.2507C7.9 29.2514 7.9 29.252 7.9 29.2527C7.9 29.2534 7.9 29.254 7.9 29.2547C7.9 29.2554 7.9 29.2561 7.9 29.2567C7.9 29.2574 7.9 29.2581 7.9 29.2587C7.9 29.2594 7.9 29.2601 7.9 29.2608C7.9 29.2614 7.9 29.2621 7.9 29.2628C7.9 29.2634 7.9 29.2641 7.9 29.2648C7.9 29.2654 7.9 29.2661 7.9 29.2668C7.9 29.2674 7.9 29.2681 7.9 29.2688C7.9 29.2694 7.9 29.2701 7.9 29.2707C7.9 29.2714 7.9 29.2721 7.9 29.2727C7.9 29.2734 7.9 29.2741 7.9 29.2747C7.9 29.2754 7.9 29.276 7.9 29.2767C7.9 29.2774 7.9 29.278 7.9 29.2787C7.9 29.2793 7.9 29.28 7.9 29.2806C7.9 29.2813 7.9 29.282 7.9 29.2826C7.9 29.2833 7.9 29.2839 7.9 29.2846C7.9 29.2852 7.9 29.2859 7.9 29.2865C7.9 29.2872 7.9 29.2878 7.9 29.2885C7.9 29.2891 7.9 29.2898 7.9 29.2904C7.9 29.2911 7.9 29.2917 7.9 29.2924C7.9 29.293 7.9 29.2937 7.9 29.2943C7.9 29.295 7.9 29.2956 7.9 29.2963C7.9 29.2969 7.9 29.2976 7.9 29.2982C7.9 29.2989 7.9 29.2995 7.9 29.3001C7.9 29.3008 7.9 29.3014 7.9 29.3021C7.9 29.3027 7.9 29.3034 7.9 29.304C7.9 29.3046 7.9 29.3053 7.9 29.3059C7.9 29.3066 7.9 29.3072 7.9 29.3078C7.9 29.3085 7.9 29.3091 7.9 29.3098C7.9 29.3104 7.9 29.311 7.9 29.3117C7.9 29.3123 7.9 29.3129 7.9 29.3136C7.9 29.3142 7.9 29.3148 7.9 29.3155C7.9 29.3161 7.9 29.3167 7.9 29.3174C7.9 29.318 7.9 29.3186 7.9 29.3193C7.9 29.3199 7.9 29.3205 7.9 29.3212C7.9 29.3218 7.9 29.3224 7.9 29.3231C7.9 29.3237 7.9 29.3243 7.9 29.3249C7.9 29.3256 7.9 29.3262 7.9 29.3268C7.9 29.3274 7.9 29.3281 7.9 29.3287C7.9 29.3293 7.9 29.3299 7.9 29.3306C7.9 29.3312 7.9 29.3318 7.9 29.3324C7.9 29.3331 7.9 29.3337 7.9 29.3343C7.9 29.3349 7.9 29.3355 7.9 29.3362C7.9 29.3368 7.9 29.3374 7.9 29.338C7.9 29.3386 7.9 29.3393 7.9 29.3399C7.9 29.3405 7.9 29.3411 7.9 29.3417C7.9 29.3423 7.9 29.343 7.9 29.3436C7.9 29.3442 7.9 29.3448 7.9 29.3454C7.9 29.346 7.9 29.3466 7.9 29.3473C7.9 29.3479 7.9 29.3485 7.9 29.3491C7.9 29.3497 7.9 29.3503 7.9 29.3509C7.9 29.3515 7.9 29.3521 7.9 29.3527C7.9 29.3534 7.9 29.354 7.9 29.3546C7.9 29.3552 7.9 29.3558 7.9 29.3564C7.9 29.357 7.9 29.3576 7.9 29.3582C7.9 29.3588 7.9 29.3594 7.9 29.36C7.9 29.3606 7.9 29.3612 7.9 29.3618C7.9 29.3624 7.9 29.363 7.9 29.3636C7.9 29.3642 7.9 29.3648 7.9 29.3654C7.9 29.366 7.9 29.3666 7.9 29.3672C7.9 29.3678 7.9 29.3684 7.9 29.369C7.9 29.3696 7.9 29.3702 7.9 29.3708C7.9 29.3714 7.9 29.372 7.9 29.3726C7.9 29.3732 7.9 29.3738 7.9 29.3744C7.9 29.375 7.9 29.3756 7.9 29.3762C7.9 29.3768 7.9 29.3773 7.9 29.3779C7.9 29.3785 7.9 29.3791 7.9 29.3797C7.9 29.3803 7.9 29.3809 7.9 29.3815C7.9 29.3821 7.9 29.3827 7.9 29.3832C7.9 29.3838 7.9 29.3844 7.9 29.385H11.9C11.9 29.3844 11.9 29.3838 11.9 29.3832C11.9 29.3827 11.9 29.3821 11.9 29.3815C11.9 29.3809 11.9 29.3803 11.9 29.3797C11.9 29.3791 11.9 29.3785 11.9 29.3779C11.9 29.3773 11.9 29.3768 11.9 29.3762C11.9 29.3756 11.9 29.375 11.9 29.3744C11.9 29.3738 11.9 29.3732 11.9 29.3726C11.9 29.372 11.9 29.3714 11.9 29.3708C11.9 29.3702 11.9 29.3696 11.9 29.369C11.9 29.3684 11.9 29.3678 11.9 29.3672C11.9 29.3666 11.9 29.366 11.9 29.3654C11.9 29.3648 11.9 29.3642 11.9 29.3636C11.9 29.363 11.9 29.3624 11.9 29.3618C11.9 29.3612 11.9 29.3606 11.9 29.36C11.9 29.3594 11.9 29.3588 11.9 29.3582C11.9 29.3576 11.9 29.357 11.9 29.3564C11.9 29.3558 11.9 29.3552 11.9 29.3546C11.9 29.354 11.9 29.3534 11.9 29.3527C11.9 29.3521 11.9 29.3515 11.9 29.3509C11.9 29.3503 11.9 29.3497 11.9 29.3491C11.9 29.3485 11.9 29.3479 11.9 29.3473C11.9 29.3466 11.9 29.346 11.9 29.3454C11.9 29.3448 11.9 29.3442 11.9 29.3436C11.9 29.343 11.9 29.3423 11.9 29.3417C11.9 29.3411 11.9 29.3405 11.9 29.3399C11.9 29.3393 11.9 29.3386 11.9 29.338C11.9 29.3374 11.9 29.3368 11.9 29.3362C11.9 29.3355 11.9 29.3349 11.9 29.3343C11.9 29.3337 11.9 29.3331 11.9 29.3324C11.9 29.3318 11.9 29.3312 11.9 29.3306C11.9 29.3299 11.9 29.3293 11.9 29.3287C11.9 29.3281 11.9 29.3274 11.9 29.3268C11.9 29.3262 11.9 29.3256 11.9 29.3249C11.9 29.3243 11.9 29.3237 11.9 29.3231C11.9 29.3224 11.9 29.3218 11.9 29.3212C11.9 29.3205 11.9 29.3199 11.9 29.3193C11.9 29.3186 11.9 29.318 11.9 29.3174C11.9 29.3167 11.9 29.3161 11.9 29.3155C11.9 29.3148 11.9 29.3142 11.9 29.3136C11.9 29.3129 11.9 29.3123 11.9 29.3117C11.9 29.311 11.9 29.3104 11.9 29.3098C11.9 29.3091 11.9 29.3085 11.9 29.3078C11.9 29.3072 11.9 29.3066 11.9 29.3059C11.9 29.3053 11.9 29.3046 11.9 29.304C11.9 29.3034 11.9 29.3027 11.9 29.3021C11.9 29.3014 11.9 29.3008 11.9 29.3001C11.9 29.2995 11.9 29.2989 11.9 29.2982C11.9 29.2976 11.9 29.2969 11.9 29.2963C11.9 29.2956 11.9 29.295 11.9 29.2943C11.9 29.2937 11.9 29.293 11.9 29.2924C11.9 29.2917 11.9 29.2911 11.9 29.2904C11.9 29.2898 11.9 29.2891 11.9 29.2885C11.9 29.2878 11.9 29.2872 11.9 29.2865C11.9 29.2859 11.9 29.2852 11.9 29.2846C11.9 29.2839 11.9 29.2833 11.9 29.2826C11.9 29.282 11.9 29.2813 11.9 29.2806C11.9 29.28 11.9 29.2793 11.9 29.2787C11.9 29.278 11.9 29.2774 11.9 29.2767C11.9 29.276 11.9 29.2754 11.9 29.2747C11.9 29.2741 11.9 29.2734 11.9 29.2727C11.9 29.2721 11.9 29.2714 11.9 29.2707C11.9 29.2701 11.9 29.2694 11.9 29.2688C11.9 29.2681 11.9 29.2674 11.9 29.2668C11.9 29.2661 11.9 29.2654 11.9 29.2648C11.9 29.2641 11.9 29.2634 11.9 29.2628C11.9 29.2621 11.9 29.2614 11.9 29.2608C11.9 29.2601 11.9 29.2594 11.9 29.2587C11.9 29.2581 11.9 29.2574 11.9 29.2567C11.9 29.2561 11.9 29.2554 11.9 29.2547C11.9 29.254 11.9 29.2534 11.9 29.2527C11.9 29.252 11.9 29.2514 11.9 29.2507C11.9 29.25 11.9 29.2493 11.9 29.2486C11.9 29.248 11.9 29.2473 11.9 29.2466C11.9 29.2459 11.9 29.2453 11.9 29.2446C11.9 29.2439 11.9 29.2432 11.9 29.2425C11.9 29.2419 11.9 29.2412 11.9 29.2405C11.9 29.2398 11.9 29.2391 11.9 29.2385C11.9 29.2378 11.9 29.2371 11.9 29.2364C11.9 29.2357 11.9 29.235 11.9 29.2343C11.9 29.2337 11.9 29.233 11.9 29.2323C11.9 29.2316 11.9 29.2309 11.9 29.2302C11.9 29.2295 11.9 29.2289 11.9 29.2282C11.9 29.2275 11.9 29.2268 11.9 29.2261C11.9 29.2254 11.9 29.2247 11.9 29.224C11.9 29.2233 11.9 29.2226 11.9 29.2219C11.9 29.2213 11.9 29.2206 11.9 29.2199C11.9 29.2192 11.9 29.2185 11.9 29.2178C11.9 29.2171 11.9 29.2164 11.9 29.2157C11.9 29.215 11.9 29.2143 11.9 29.2136C11.9 29.2129 11.9 29.2122 11.9 29.2115C11.9 29.2108 11.9 29.2101 11.9 29.2094C11.9 29.2087 11.9 29.208 11.9 29.2073C11.9 29.2066 11.9 29.2059 11.9 29.2052C11.9 29.2045 11.9 29.2038 11.9 29.2031C11.9 29.2024 11.9 29.2017 11.9 29.201C11.9 29.2003 11.9 29.1996 11.9 29.1988C11.9 29.1981 11.9 29.1974 11.9 29.1967C11.9 29.196 11.9 29.1953 11.9 29.1946C11.9 29.1939 11.9 29.1932 11.9 29.1925C11.9 29.1918 11.9 29.191 11.9 29.1903C11.9 29.1896 11.9 29.1889 11.9 29.1882C11.9 29.1875 11.9 29.1868 11.9 29.1861C11.9 29.1853 11.9 29.1846 11.9 29.1839C11.9 29.1832 11.9 29.1825 11.9 29.1818C11.9 29.181 11.9 29.1803 11.9 29.1796C11.9 29.1789 11.9 29.1782 11.9 29.1775C11.9 29.1767 11.9 29.176 11.9 29.1753C11.9 29.1746 11.9 29.1739 11.9 29.1731C11.9 29.1724 11.9 29.1717 11.9 29.171C11.9 29.1702 11.9 29.1695 11.9 29.1688C11.9 29.1681 11.9 29.1673 11.9 29.1666C11.9 29.1659 11.9 29.1652 11.9 29.1644C11.9 29.1637 11.9 29.163 11.9 29.1623C11.9 29.1615 11.9 29.1608 11.9 29.1601C11.9 29.1593 11.9 29.1586 11.9 29.1579C11.9 29.1571 11.9 29.1564 11.9 29.1557C11.9 29.155 11.9 29.1542 11.9 29.1535C11.9 29.1528 11.9 29.152 11.9 29.1513C11.9 29.1506 11.9 29.1498 11.9 29.1491C11.9 29.1483 11.9 29.1476 11.9 29.1469C11.9 29.1461 11.9 29.1454 11.9 29.1447C11.9 29.1439 11.9 29.1432 11.9 29.1424C11.9 29.1417 11.9 29.141 11.9 29.1402C11.9 29.1395 11.9 29.1387 11.9 29.138C11.9 29.1373 11.9 29.1365 11.9 29.1358C11.9 29.135 11.9 29.1343 11.9 29.1335C11.9 29.1328 11.9 29.132 11.9 29.1313C11.9 29.1306 11.9 29.1298 11.9 29.1291C11.9 29.1283 11.9 29.1276 11.9 29.1268C11.9 29.1261 11.9 29.1253 11.9 29.1246C11.9 29.1238 11.9 29.1231 11.9 29.1223C11.9 29.1216 11.9 29.1208 11.9 29.1201C11.9 29.1193 11.9 29.1186 11.9 29.1178C11.9 29.1171 11.9 29.1163 11.9 29.1155C11.9 29.1148 11.9 29.114 11.9 29.1133C11.9 29.1125 11.9 29.1118 11.9 29.111C11.9 29.1103 11.9 29.1095 11.9 29.1087C11.9 29.108 11.9 29.1072 11.9 29.1065C11.9 29.1057 11.9 29.1049 11.9 29.1042C11.9 29.1034 11.9 29.1027 11.9 29.1019C11.9 29.1011 11.9 29.1004 11.9 29.0996C11.9 29.0988 11.9 29.0981 11.9 29.0973C11.9 29.0965 11.9 29.0958 11.9 29.095C11.9 29.0943 11.9 29.0935 11.9 29.0927C11.9 29.092 11.9 29.0912 11.9 29.0904C11.9 29.0896 11.9 29.0889 11.9 29.0881C11.9 29.0873 11.9 29.0866 11.9 29.0858C11.9 29.085 11.9 29.0843 11.9 29.0835C11.9 29.0827 11.9 29.0819 11.9 29.0812C11.9 29.0804 11.9 29.0796 11.9 29.0788C11.9 29.0781 11.9 29.0773 11.9 29.0765C11.9 29.0757 11.9 29.075 11.9 29.0742C11.9 29.0734 11.9 29.0726 11.9 29.0719C11.9 29.0711 11.9 29.0703 11.9 29.0695C11.9 29.0687 11.9 29.068 11.9 29.0672C11.9 29.0664 11.9 29.0656 11.9 29.0648C11.9 29.064 11.9 29.0633 11.9 29.0625C11.9 29.0617 11.9 29.0609 11.9 29.0601C11.9 29.0593 11.9 29.0586 11.9 29.0578C11.9 29.057 11.9 29.0562 11.9 29.0554C11.9 29.0546 11.9 29.0538 11.9 29.053C11.9 29.0523 11.9 29.0515 11.9 29.0507C11.9 29.0499 11.9 29.0491 11.9 29.0483C11.9 29.0475 11.9 29.0467 11.9 29.0459C11.9 29.0451 11.9 29.0443 11.9 29.0436C11.9 29.0428 11.9 29.042 11.9 29.0412C11.9 29.0404 11.9 29.0396 11.9 29.0388C11.9 29.038 11.9 29.0372 11.9 29.0364C11.9 29.0356 11.9 29.0348 11.9 29.034C11.9 29.0332 11.9 29.0324 11.9 29.0316C11.9 29.0308 11.9 29.03 11.9 29.0292C11.9 29.0284 11.9 29.0276 11.9 29.0268C11.9 29.026 11.9 29.0252 11.9 29.0244C11.9 29.0236 11.9 29.0228 11.9 29.022C11.9 29.0212 11.9 29.0204 11.9 29.0196C11.9 29.0187 11.9 29.0179 11.9 29.0171C11.9 29.0163 11.9 29.0155 11.9 29.0147C11.9 29.0139 11.9 29.0131 11.9 29.0123C11.9 29.0115 11.9 29.0107 11.9 29.0098C11.9 29.009 11.9 29.0082 11.9 29.0074C11.9 29.0066 11.9 29.0058 11.9 29.005C11.9 29.0042 11.9 29.0033 11.9 29.0025C11.9 29.0017 11.9 29.0009 11.9 29.0001C11.9 28.9993 11.9 28.9984 11.9 28.9976C11.9 28.9968 11.9 28.996 11.9 28.9952C11.9 28.9944 11.9 28.9935 11.9 28.9927C11.9 28.9919 11.9 28.9911 11.9 28.9903C11.9 28.9894 11.9 28.9886 11.9 28.9878C11.9 28.987 11.9 28.9861 11.9 28.9853C11.9 28.9845 11.9 28.9837 11.9 28.9828C11.9 28.982 11.9 28.9812 11.9 28.9804C11.9 28.9795 11.9 28.9787 11.9 28.9779C11.9 28.9771 11.9 28.9762 11.9 28.9754C11.9 28.9746 11.9 28.9737 11.9 28.9729C11.9 28.9721 11.9 28.9713 11.9 28.9704C11.9 28.9696 11.9 28.9688 11.9 28.9679C11.9 28.9671 11.9 28.9663 11.9 28.9654C11.9 28.9646 11.9 28.9638 11.9 28.9629C11.9 28.9621 11.9 28.9613 11.9 28.9604C11.9 28.9596 11.9 28.9587 11.9 28.9579C11.9 28.9571 11.9 28.9562 11.9 28.9554C11.9 28.9546 11.9 28.9537 11.9 28.9529C11.9 28.952 11.9 28.9512 11.9 28.9503C11.9 28.9495 11.9 28.9487 11.9 28.9478C11.9 28.947 11.9 28.9461 11.9 28.9453C11.9 28.9444 11.9 28.9436 11.9 28.9428C11.9 28.9419 11.9 28.9411 11.9 28.9402C11.9 28.9394 11.9 28.9385 11.9 28.9377C11.9 28.9368 11.9 28.936 11.9 28.9351C11.9 28.9343 11.9 28.9334 11.9 28.9326C11.9 28.9317 11.9 28.9309 11.9 28.93C11.9 28.9292 11.9 28.9283 11.9 28.9275C11.9 28.9266 11.9 28.9258 11.9 28.9249C11.9 28.9241 11.9 28.9232 11.9 28.9224C11.9 28.9215 11.9 28.9206 11.9 28.9198C11.9 28.9189 11.9 28.9181 11.9 28.9172C11.9 28.9164 11.9 28.9155 11.9 28.9146C11.9 28.9138 11.9 28.9129 11.9 28.9121C11.9 28.9112 11.9 28.9103 11.9 28.9095C11.9 28.9086 11.9 28.9078 11.9 28.9069C11.9 28.906 11.9 28.9052 11.9 28.9043C11.9 28.9034 11.9 28.9026 11.9 28.9017C11.9 28.9008 11.9 28.9 11.9 28.8991C11.9 28.8982 11.9 28.8974 11.9 28.8965C11.9 28.8956 11.9 28.8948 11.9 28.8939C11.9 28.893 11.9 28.8922 11.9 28.8913C11.9 28.8904 11.9 28.8895 11.9 28.8887C11.9 28.8878 11.9 28.8869 11.9 28.8861C11.9 28.8852 11.9 28.8843 11.9 28.8834C11.9 28.8826 11.9 28.8817 11.9 28.8808C11.9 28.8799 11.9 28.8791 11.9 28.8782C11.9 28.8773 11.9 28.8764 11.9 28.8756C11.9 28.8747 11.9 28.8738 11.9 28.8729C11.9 28.872 11.9 28.8712 11.9 28.8703C11.9 28.8694 11.9 28.8685 11.9 28.8676C11.9 28.8668 11.9 28.8659 11.9 28.865C11.9 28.8641 11.9 28.8632 11.9 28.8623C11.9 28.8615 11.9 28.8606 11.9 28.8597C11.9 28.8588 11.9 28.8579 11.9 28.857C11.9 28.8561 11.9 28.8552 11.9 28.8544C11.9 28.8535 11.9 28.8526 11.9 28.8517C11.9 28.8508 11.9 28.8499 11.9 28.849C11.9 28.8481 11.9 28.8472 11.9 28.8463C11.9 28.8455 11.9 28.8446 11.9 28.8437C11.9 28.8428 11.9 28.8419 11.9 28.841C11.9 28.8401 11.9 28.8392 11.9 28.8383C11.9 28.8374 11.9 28.8365 11.9 28.8356C11.9 28.8347 11.9 28.8338 11.9 28.8329C11.9 28.832 11.9 28.8311 11.9 28.8302C11.9 28.8293 11.9 28.8284 11.9 28.8275C11.9 28.8266 11.9 28.8257 11.9 28.8248C11.9 28.8239 11.9 28.823 11.9 28.8221C11.9 28.8212 11.9 28.8203 11.9 28.8194C11.9 28.8185 11.9 28.8176 11.9 28.8167C11.9 28.8158 11.9 28.8149 11.9 28.814C11.9 28.8131 11.9 28.8122 11.9 28.8112C11.9 28.8103 11.9 28.8094 11.9 28.8085C11.9 28.8076 11.9 28.8067 11.9 28.8058C11.9 28.8049 11.9 28.804 11.9 28.8031C11.9 28.8021 11.9 28.8012 11.9 28.8003C11.9 28.7994 11.9 28.7985 11.9 28.7976C11.9 28.7967 11.9 28.7957 11.9 28.7948C11.9 28.7939 11.9 28.793 11.9 28.7921C11.9 28.7912 11.9 28.7902 11.9 28.7893C11.9 28.7884 11.9 28.7875 11.9 28.7866C11.9 28.7857 11.9 28.7847 11.9 28.7838C11.9 28.7829 11.9 28.782 11.9 28.781C11.9 28.7801 11.9 28.7792 11.9 28.7783C11.9 28.7774 11.9 28.7764 11.9 28.7755C11.9 28.7746 11.9 28.7737 11.9 28.7727C11.9 28.7718 11.9 28.7709 11.9 28.77C11.9 28.769 11.9 28.7681 11.9 28.7672C11.9 28.7662 11.9 28.7653 11.9 28.7644C11.9 28.7635 11.9 28.7625 11.9 28.7616C11.9 28.7607 11.9 28.7597 11.9 28.7588C11.9 28.7579 11.9 28.7569 11.9 28.756C11.9 28.7551 11.9 28.7541 11.9 28.7532C11.9 28.7523 11.9 28.7513 11.9 28.7504C11.9 28.7495 11.9 28.7485 11.9 28.7476C11.9 28.7466 11.9 28.7457 11.9 28.7448C11.9 28.7438 11.9 28.7429 11.9 28.742C11.9 28.741 11.9 28.7401 11.9 28.7391C11.9 28.7382 11.9 28.7373 11.9 28.7363C11.9 28.7354 11.9 28.7344 11.9 28.7335C11.9 28.7325 11.9 28.7316 11.9 28.7306C11.9 28.7297 11.9 28.7288 11.9 28.7278C11.9 28.7269 11.9 28.7259 11.9 28.725C11.9 28.724 11.9 28.7231 11.9 28.7221C11.9 28.7212 11.9 28.7202 11.9 28.7193C11.9 28.7183 11.9 28.7174 11.9 28.7164C11.9 28.7155 11.9 28.7145 11.9 28.7136C11.9 28.7126 11.9 28.7117 11.9 28.7107C11.9 28.7098 11.9 28.7088 11.9 28.7079C11.9 28.7069 11.9 28.7059 11.9 28.705C11.9 28.704 11.9 28.7031 11.9 28.7021C11.9 28.7012 11.9 28.7002 11.9 28.6992C11.9 28.6983 11.9 28.6973 11.9 28.6964C11.9 28.6954 11.9 28.6944 11.9 28.6935C11.9 28.6925 11.9 28.6916 11.9 28.6906C11.9 28.6896 11.9 28.6887 11.9 28.6877C11.9 28.6867 11.9 28.6858 11.9 28.6848C11.9 28.6839 11.9 28.6829 11.9 28.6819C11.9 28.681 11.9 28.68 11.9 28.679C11.9 28.6781 11.9 28.6771 11.9 28.6761C11.9 28.6751 11.9 28.6742 11.9 28.6732C11.9 28.6722 11.9 28.6713 11.9 28.6703C11.9 28.6693 11.9 28.6684 11.9 28.6674C11.9 28.6664 11.9 28.6654 11.9 28.6645C11.9 28.6635 11.9 28.6625 11.9 28.6615C11.9 28.6606 11.9 28.6596 11.9 28.6586C11.9 28.6576 11.9 28.6567 11.9 28.6557C11.9 28.6547 11.9 28.6537 11.9 28.6528C11.9 28.6518 11.9 28.6508 11.9 28.6498C11.9 28.6488 11.9 28.6479 11.9 28.6469C11.9 28.6459 11.9 28.6449 11.9 28.6439C11.9 28.6429 11.9 28.642 11.9 28.641C11.9 28.64 11.9 28.639 11.9 28.638C11.9 28.637 11.9 28.6361 11.9 28.6351C11.9 28.6341 11.9 28.6331 11.9 28.6321C11.9 28.6311 11.9 28.6301 11.9 28.6291C11.9 28.6282 11.9 28.6272 11.9 28.6262C11.9 28.6252 11.9 28.6242 11.9 28.6232C11.9 28.6222 11.9 28.6212 11.9 28.6202C11.9 28.6192 11.9 28.6182 11.9 28.6172C11.9 28.6163 11.9 28.6153 11.9 28.6143C11.9 28.6133 11.9 28.6123 11.9 28.6113C11.9 28.6103 11.9 28.6093 11.9 28.6083C11.9 28.6073 11.9 28.6063 11.9 28.6053C11.9 28.6043 11.9 28.6033 11.9 28.6023C11.9 28.6013 11.9 28.6003 11.9 28.5993C11.9 28.5983 11.9 28.5973 11.9 28.5963C11.9 28.5953 11.9 28.5943 11.9 28.5933C11.9 28.5923 11.9 28.5913 11.9 28.5903C11.9 28.5893 11.9 28.5882 11.9 28.5872C11.9 28.5862 11.9 28.5852 11.9 28.5842C11.9 28.5832 11.9 28.5822 11.9 28.5812C11.9 28.5802 11.9 28.5792 11.9 28.5782C11.9 28.5772 11.9 28.5761 11.9 28.5751C11.9 28.5741 11.9 28.5731 11.9 28.5721C11.9 28.5711 11.9 28.5701 11.9 28.5691C11.9 28.568 11.9 28.567 11.9 28.566C11.9 28.565 11.9 28.564 11.9 28.563C11.9 28.562 11.9 28.5609 11.9 28.5599C11.9 28.5589 11.9 28.5579 11.9 28.5569C11.9 28.5558 11.9 28.5548 11.9 28.5538C11.9 28.5528 11.9 28.5518 11.9 28.5507C11.9 28.5497 11.9 28.5487 11.9 28.5477C11.9 28.5466 11.9 28.5456 11.9 28.5446C11.9 28.5436 11.9 28.5426 11.9 28.5415C11.9 28.5405 11.9 28.5395 11.9 28.5385C11.9 28.5374 11.9 28.5364 11.9 28.5354C11.9 28.5343 11.9 28.5333 11.9 28.5323C11.9 28.5313 11.9 28.5302 11.9 28.5292C11.9 28.5282 11.9 28.5271 11.9 28.5261C11.9 28.5251 11.9 28.524 11.9 28.523C11.9 28.522 11.9 28.5209 11.9 28.5199C11.9 28.5189 11.9 28.5178 11.9 28.5168C11.9 28.5158 11.9 28.5147 11.9 28.5137C11.9 28.5127 11.9 28.5116 11.9 28.5106C11.9 28.5095 11.9 28.5085 11.9 28.5075C11.9 28.5064 11.9 28.5054 11.9 28.5043C11.9 28.5033 11.9 28.5023 11.9 28.5012C11.9 28.5002 11.9 28.4991 11.9 28.4981C11.9 28.4971 11.9 28.496 11.9 28.495C11.9 28.4939 11.9 28.4929 11.9 28.4918C11.9 28.4908 11.9 28.4897 11.9 28.4887C11.9 28.4876 11.9 28.4866 11.9 28.4856C11.9 28.4845 11.9 28.4835 11.9 28.4824C11.9 28.4814 11.9 28.4803 11.9 28.4793C11.9 28.4782 11.9 28.4772 11.9 28.4761C11.9 28.4751 11.9 28.474 11.9 28.4729C11.9 28.4719 11.9 28.4708 11.9 28.4698C11.9 28.4687 11.9 28.4677 11.9 28.4666C11.9 28.4656 11.9 28.4645 11.9 28.4635C11.9 28.4624 11.9 28.4613 11.9 28.4603C11.9 28.4592 11.9 28.4582 11.9 28.4571C11.9 28.456 11.9 28.455 11.9 28.4539C11.9 28.4529 11.9 28.4518 11.9 28.4507C11.9 28.4497 11.9 28.4486 11.9 28.4476C11.9 28.4465 11.9 28.4454 11.9 28.4444C11.9 28.4433 11.9 28.4422 11.9 28.4412C11.9 28.4401 11.9 28.439 11.9 28.438C11.9 28.4369 11.9 28.4358 11.9 28.4348C11.9 28.4337 11.9 28.4326 11.9 28.4316C11.9 28.4305 11.9 28.4294 11.9 28.4284C11.9 28.4273 11.9 28.4262 11.9 28.4251C11.9 28.4241 11.9 28.423 11.9 28.4219C11.9 28.4208 11.9 28.4198 11.9 28.4187C11.9 28.4176 11.9 28.4165 11.9 28.4155C11.9 28.4144 11.9 28.4133 11.9 28.4122C11.9 28.4112 11.9 28.4101 11.9 28.409C11.9 28.4079 11.9 28.4069 11.9 28.4058C11.9 28.4047 11.9 28.4036 11.9 28.4025C11.9 28.4015 11.9 28.4004 11.9 28.3993C11.9 28.3982 11.9 28.3971 11.9 28.396C11.9 28.395 11.9 28.3939 11.9 28.3928C11.9 28.3917 11.9 28.3906 11.9 28.3895C11.9 28.3885 11.9 28.3874 11.9 28.3863C11.9 28.3852 11.9 28.3841 11.9 28.383C11.9 28.3819 11.9 28.3808 11.9 28.3797C11.9 28.3787 11.9 28.3776 11.9 28.3765C11.9 28.3754 11.9 28.3743 11.9 28.3732C11.9 28.3721 11.9 28.371 11.9 28.3699C11.9 28.3688 11.9 28.3677 11.9 28.3666C11.9 28.3656 11.9 28.3645 11.9 28.3634C11.9 28.3623 11.9 28.3612 11.9 28.3601C11.9 28.359 11.9 28.3579 11.9 28.3568C11.9 28.3557 11.9 28.3546 11.9 28.3535C11.9 28.3524 11.9 28.3513 11.9 28.3502C11.9 28.3491 11.9 28.348 11.9 28.3469C11.9 28.3458 11.9 28.3447 11.9 28.3436C11.9 28.3425 11.9 28.3414 11.9 28.3403C11.9 28.3392 11.9 28.338 11.9 28.3369C11.9 28.3358 11.9 28.3347 11.9 28.3336C11.9 28.3325 11.9 28.3314 11.9 28.3303C11.9 28.3292 11.9 28.3281 11.9 28.327C11.9 28.3259 11.9 28.3248 11.9 28.3236C11.9 28.3225 11.9 28.3214 11.9 28.3203C11.9 28.3192 11.9 28.3181 11.9 28.317C11.9 28.3159 11.9 28.3147 11.9 28.3136C11.9 28.3125 11.9 28.3114 11.9 28.3103C11.9 28.3092 11.9 28.308 11.9 28.3069C11.9 28.3058 11.9 28.3047 11.9 28.3036C11.9 28.3025 11.9 28.3013 11.9 28.3002C11.9 28.2991 11.9 28.298 11.9 28.2969C11.9 28.2957 11.9 28.2946 11.9 28.2935C11.9 28.2924 11.9 28.2912 11.9 28.2901C11.9 28.289 11.9 28.2879 11.9 28.2868C11.9 28.2856 11.9 28.2845 11.9 28.2834C11.9 28.2823 11.9 28.2811 11.9 28.28C11.9 28.2789 11.9 28.2777 11.9 28.2766C11.9 28.2755 11.9 28.2744 11.9 28.2732C11.9 28.2721 11.9 28.271 11.9 28.2698C11.9 28.2687 11.9 28.2676 11.9 28.2664C11.9 28.2653 11.9 28.2642 11.9 28.263C11.9 28.2619 11.9 28.2608 11.9 28.2596C11.9 28.2585 11.9 28.2574 11.9 28.2562C11.9 28.2551 11.9 28.254 11.9 28.2528C11.9 28.2517 11.9 28.2505 11.9 28.2494C11.9 28.2483 11.9 28.2471 11.9 28.246C11.9 28.2449 11.9 28.2437 11.9 28.2426C11.9 28.2414 11.9 28.2403 11.9 28.2391C11.9 28.238 11.9 28.2369 11.9 28.2357C11.9 28.2346 11.9 28.2334 11.9 28.2323C11.9 28.2311 11.9 28.23 11.9 28.2288C11.9 28.2277 11.9 28.2266 11.9 28.2254C11.9 28.2243 11.9 28.2231 11.9 28.222C11.9 28.2208 11.9 28.2197 11.9 28.2185C11.9 28.2174 11.9 28.2162 11.9 28.2151C11.9 28.2139 11.9 28.2128 11.9 28.2116C11.9 28.2105 11.9 28.2093 11.9 28.2081C11.9 28.207 11.9 28.2058 11.9 28.2047C11.9 28.2035 11.9 28.2024 11.9 28.2012C11.9 28.2001 11.9 28.1989 11.9 28.1977C11.9 28.1966 11.9 28.1954 11.9 28.1943C11.9 28.1931 11.9 28.192 11.9 28.1908C11.9 28.1896 11.9 28.1885 11.9 28.1873C11.9 28.1862 11.9 28.185 11.9 28.1838C11.9 28.1827 11.9 28.1815 11.9 28.1803C11.9 28.1792 11.9 28.178 11.9 28.1768C11.9 28.1757 11.9 28.1745 11.9 28.1733C11.9 28.1722 11.9 28.171 11.9 28.1698C11.9 28.1687 11.9 28.1675 11.9 28.1663C11.9 28.1652 11.9 28.164 11.9 28.1628C11.9 28.1617 11.9 28.1605 11.9 28.1593C11.9 28.1582 11.9 28.157 11.9 28.1558C11.9 28.1546 11.9 28.1535 11.9 28.1523C11.9 28.1511 11.9 28.1499 11.9 28.1488C11.9 28.1476 11.9 28.1464 11.9 28.1452C11.9 28.1441 11.9 28.1429 11.9 28.1417C11.9 28.1405 11.9 28.1394 11.9 28.1382C11.9 28.137 11.9 28.1358 11.9 28.1346C11.9 28.1335 11.9 28.1323 11.9 28.1311C11.9 28.1299 11.9 28.1287 11.9 28.1275C11.9 28.1264 11.9 28.1252 11.9 28.124C11.9 28.1228 11.9 28.1216 11.9 28.1204C11.9 28.1193 11.9 28.1181 11.9 28.1169C11.9 28.1157 11.9 28.1145 11.9 28.1133C11.9 28.1121 11.9 28.1109 11.9 28.1098C11.9 28.1086 11.9 28.1074 11.9 28.1062C11.9 28.105 11.9 28.1038 11.9 28.1026C11.9 28.1014 11.9 28.1002 11.9 28.099C11.9 28.0978 11.9 28.0967 11.9 28.0955C11.9 28.0943 11.9 28.0931 11.9 28.0919C11.9 28.0907 11.9 28.0895 11.9 28.0883C11.9 28.0871 11.9 28.0859 11.9 28.0847C11.9 28.0835 11.9 28.0823 11.9 28.0811C11.9 28.0799 11.9 28.0787 11.9 28.0775C11.9 28.0763 11.9 28.0751 11.9 28.0739C11.9 28.0727 11.9 28.0715 11.9 28.0703C11.9 28.0691 11.9 28.0679 11.9 28.0667C11.9 28.0655 11.9 28.0643 11.9 28.0631C11.9 28.0619 11.9 28.0607 11.9 28.0595C11.9 28.0582 11.9 28.057 11.9 28.0558C11.9 28.0546 11.9 28.0534 11.9 28.0522C11.9 28.051 11.9 28.0498 11.9 28.0486C11.9 28.0474 11.9 28.0462 11.9 28.0449C11.9 28.0437 11.9 28.0425 11.9 28.0413C11.9 28.0401 11.9 28.0389 11.9 28.0377C11.9 28.0365 11.9 28.0352 11.9 28.034C11.9 28.0328 11.9 28.0316 11.9 28.0304C11.9 28.0292 11.9 28.0279 11.9 28.0267C11.9 28.0255 11.9 28.0243 11.9 28.0231C11.9 28.0218 11.9 28.0206 11.9 28.0194C11.9 28.0182 11.9 28.017 11.9 28.0157C11.9 28.0145 11.9 28.0133 11.9 28.0121C11.9 28.0109 11.9 28.0096 11.9 28.0084C11.9 28.0072 11.9 28.006 11.9 28.0047C11.9 28.0035 11.9 28.0023 11.9 28.0011C11.9 27.9998 11.9 27.9986 11.9 27.9974C11.9 27.9961 11.9 27.9949 11.9 27.9937C11.9 27.9925 11.9 27.9912 11.9 27.99H7.9ZM7.9 29.385C7.9 29.7338 7.91692 30.2526 7.94706 30.9158L11.9429 30.7342C11.9131 30.0774 11.9 29.6362 11.9 29.385H7.9ZM7.94726 30.9201C7.98276 31.6656 8.08742 32.4672 8.25099 33.3177L12.179 32.5623C12.0426 31.8528 11.9672 31.2444 11.9427 30.7299L7.94726 30.9201ZM8.27023 33.4067C8.47666 34.2669 8.76469 35.1433 9.12782 36.0346L12.8322 34.5254C12.5353 33.7967 12.3133 33.1131 12.1598 32.4733L8.27023 33.4067ZM9.15238 36.0923C9.59561 37.0896 10.1846 38.0072 10.9108 38.8424L13.9292 36.2176C13.4554 35.6728 13.0844 35.0904 12.8076 34.4677L9.15238 36.0923ZM10.9733 38.9109C11.8006 39.7777 12.8002 40.4594 13.9368 40.9727L15.5832 37.3273C14.8598 37.0006 14.2994 36.6023 13.8667 36.149L10.9733 38.9109ZM13.9584 40.9823C15.2328 41.5399 16.6754 41.78 18.225 41.78V37.78C17.0746 37.78 16.2072 37.6001 15.5616 37.3177L13.9584 40.9823ZM18.225 41.78C19.2355 41.78 20.2367 41.6299 21.2232 41.3376L20.0868 37.5024C19.4533 37.6901 18.8345 37.78 18.225 37.78V41.78ZM21.2044 41.343C22.2537 41.0433 23.2189 40.5847 24.0813 39.9575L21.7287 36.7225C21.2711 37.0553 20.7363 37.3167 20.1056 37.497L21.2044 41.343ZM24.0938 39.9484C25.0158 39.2669 25.7669 38.4106 26.3474 37.4044L22.8826 35.4056C22.5631 35.9594 22.1742 36.3931 21.7162 36.7316L24.0938 39.9484ZM26.3183 37.4532C26.9903 36.3612 27.3518 35.1168 27.4631 33.7811L23.4769 33.4489C23.4082 34.2732 23.1997 34.8888 22.9117 35.3568L26.3183 37.4532ZM25.47 31.615H19.17V35.615H25.47V31.615ZM21.17 33.615V27.9H17.17V33.615H21.17ZM19.17 29.9H32.58V25.9H19.17V29.9ZM49.4578 27.63H47.4578V29.63H49.4578V27.63ZM60.2128 26.235L61.7396 27.5269L61.763 27.4992L61.7855 27.4706L60.2128 26.235ZM60.8428 24.93L58.9103 24.4147L58.8941 24.4758L58.8817 24.5378L60.8428 24.93ZM59.7178 20.475L60.8139 18.8021H60.8139L59.7178 20.475ZM49.4578 19.62V17.62H47.4578V19.62H49.4578ZM42.0328 13.5V11.5H40.0328V13.5H42.0328ZM60.0328 13.59L59.8667 15.5831L59.8733 15.5836L60.0328 13.59ZM62.3278 13.995L61.8079 15.9262L61.8169 15.9287L61.8259 15.931L62.3278 13.995ZM64.7128 14.94L63.7646 16.7009L63.7913 16.7153L63.8184 16.7289L64.7128 14.94ZM66.7828 16.515L65.3029 17.8603L65.3193 17.8783L65.3361 17.896L66.7828 16.515ZM68.2678 18.99L66.3882 19.6735L66.4009 19.7084L66.4149 19.7428L68.2678 18.99ZM68.2678 25.83L66.4234 25.0565L66.4127 25.0821L66.4027 25.108L68.2678 25.83ZM66.8728 28.125L65.4228 26.7475L65.4043 26.767L65.3862 26.7871L66.8728 28.125ZM65.0728 29.565L66.0008 31.3367L66.0157 31.3288L66.0305 31.3208L65.0728 29.565ZM63.3628 30.33L62.6972 28.444L61.3628 28.915V30.33H63.3628ZM63.3628 30.42H61.3628V31.9002L62.7784 32.3327L63.3628 30.42ZM65.8828 31.86L64.4345 33.2393L64.4514 33.257L64.4686 33.2742L65.8828 31.86ZM67.2328 33.885L65.3759 34.6278L65.3812 34.641L65.3867 34.6542L67.2328 33.885ZM67.7728 36.09L65.7792 36.2495V36.2495L67.7728 36.09ZM67.8628 38.07H65.8628V38.1003L65.8637 38.1306L67.8628 38.07ZM67.9078 40.635H65.9078V40.6785L65.9097 40.7219L67.9078 40.635ZM68.0428 42.435L66.0565 42.6687L66.0632 42.7259L66.0732 42.7826L68.0428 42.435ZM68.4028 43.83L66.5193 44.5027L66.5494 44.5869L66.5869 44.6681L68.4028 43.83ZM69.0778 45V47H72.895L70.7222 43.8616L69.0778 45ZM61.5178 45L59.8697 46.1331L60.4658 47H61.5178V45ZM60.7978 43.605L58.8653 44.1203L58.8811 44.1794L58.9004 44.2375L60.7978 43.605ZM60.5278 42.075L58.5303 42.1749L58.5331 42.2297L58.5388 42.2844L60.5278 42.075ZM60.4378 40.005L58.4392 40.079L58.4393 40.0819L60.4378 40.005ZM60.2578 36.99L62.2522 36.8404L62.2506 36.8189L62.2485 36.7974L60.2578 36.99ZM59.4478 34.875L57.9481 36.1982L57.9681 36.2209L57.9887 36.2429L59.4478 34.875ZM57.9178 33.795L57.1417 35.6383L57.1837 35.6559L57.2264 35.6717L57.9178 33.795ZM56.2528 33.435L56.1354 35.4315L56.194 35.435H56.2528V33.435ZM49.4578 33.39V31.39H47.4578V33.39H49.4578ZM49.4578 45V47H51.4578V45H49.4578ZM42.0328 45H40.0328V47H42.0328V45ZM49.4578 29.63H56.2528V25.63H49.4578V29.63ZM56.2528 29.63C57.4441 29.63 58.5852 29.4813 59.5607 29.0633L57.985 25.3867C57.7004 25.5087 57.1616 25.63 56.2528 25.63V29.63ZM59.5607 29.0633C60.383 28.7108 61.1525 28.2207 61.7396 27.5269L58.686 24.9431C58.6131 25.0293 58.4226 25.1992 57.985 25.3867L59.5607 29.0633ZM61.7855 27.4706C62.2776 26.8443 62.6431 26.1267 62.804 25.3222L58.8817 24.5378C58.8625 24.6333 58.8081 24.7857 58.6402 24.9994L61.7855 27.4706ZM62.7753 25.4453C62.9317 24.8587 63.0228 24.2638 63.0228 23.67H59.0228C59.0228 23.8562 58.9939 24.1013 58.9103 24.4147L62.7753 25.4453ZM63.0228 23.67C63.0228 21.7937 62.4932 19.9023 60.8139 18.8021L58.6218 22.1479C58.6825 22.1877 59.0228 22.4263 59.0228 23.67H63.0228ZM60.8139 18.8021C59.4835 17.9305 57.7919 17.62 55.9828 17.62V21.62C57.4137 21.62 58.2121 21.8795 58.6218 22.1479L60.8139 18.8021ZM55.9828 17.62H49.4578V21.62H55.9828V17.62ZM47.4578 19.62V27.63H51.4578V19.62H47.4578ZM42.0328 15.5H58.1428V11.5H42.0328V15.5ZM58.1428 15.5C58.6125 15.5 59.1848 15.5263 59.8667 15.5831L60.1989 11.5969C59.4408 11.5337 58.7531 11.5 58.1428 11.5V15.5ZM59.8733 15.5836C60.493 15.6332 61.1373 15.7457 61.8079 15.9262L62.8478 12.0638C61.9583 11.8243 61.0727 11.6668 60.1923 11.5964L59.8733 15.5836ZM61.8259 15.931C62.4718 16.0985 63.1176 16.3525 63.7646 16.7009L65.661 13.1791C64.7481 12.6875 63.8038 12.3115 62.8297 12.059L61.8259 15.931ZM63.8184 16.7289C64.3724 17.0059 64.8652 17.3788 65.3029 17.8603L68.2627 15.1697C67.5005 14.3312 66.6132 13.6541 65.6072 13.1511L63.8184 16.7289ZM65.3361 17.896C65.7479 18.3273 66.1082 18.9035 66.3882 19.6735L70.1474 18.3065C69.7074 17.0965 69.0778 16.0227 68.2295 15.134L65.3361 17.896ZM66.4149 19.7428C66.6832 20.4033 66.8528 21.2887 66.8528 22.455H70.8528C70.8528 20.9213 70.6324 19.4967 70.1208 18.2372L66.4149 19.7428ZM66.8528 22.455C66.8528 23.5875 66.6843 24.4345 66.4234 25.0565L70.1122 26.6035C70.6313 25.3655 70.8528 23.9625 70.8528 22.455H66.8528ZM66.4027 25.108C66.1181 25.8433 65.7802 26.3713 65.4228 26.7475L68.3228 29.5025C69.1055 28.6786 69.6976 27.6767 70.1329 26.552L66.4027 25.108ZM65.3862 26.7871C64.9864 27.2313 64.5623 27.5653 64.1151 27.8092L66.0305 31.3208C66.9034 30.8447 67.6792 30.2187 68.3594 29.4629L65.3862 26.7871ZM64.1448 27.7933C63.5747 28.0919 63.0942 28.3039 62.6972 28.444L64.0285 32.216C64.6515 31.9961 65.3109 31.6981 66.0008 31.3367L64.1448 27.7933ZM61.3628 30.33V30.42H65.3628V30.33H61.3628ZM62.7784 32.3327C63.6248 32.5913 64.1323 32.9219 64.4345 33.2393L67.3311 30.4807C66.4333 29.538 65.2608 28.9087 63.9473 28.5073L62.7784 32.3327ZM64.4686 33.2742C64.8869 33.6925 65.1815 34.1419 65.3759 34.6278L69.0898 33.1422C68.6841 32.1281 68.0787 31.2275 67.297 30.4458L64.4686 33.2742ZM65.3867 34.6542C65.6087 35.1872 65.7366 35.7169 65.7792 36.2495L69.7664 35.9305C69.6891 34.9631 69.4569 34.0228 69.079 33.1158L65.3867 34.6542ZM65.7792 36.2495C65.8362 36.9621 65.8628 37.5669 65.8628 38.07H69.8628C69.8628 37.4331 69.8294 36.7179 69.7664 35.9305L65.7792 36.2495ZM65.8637 38.1306C65.8933 39.1073 65.9078 39.9411 65.9078 40.635H69.9078C69.9078 39.8889 69.8923 39.0127 69.8619 38.0094L65.8637 38.1306ZM65.9097 40.7219C65.9412 41.4454 65.9892 42.0966 66.0565 42.6687L70.0291 42.2013C69.9764 41.7534 69.9345 41.2046 69.9059 40.5481L65.9097 40.7219ZM66.0732 42.7826C66.1797 43.386 66.3261 43.9616 66.5193 44.5027L70.2863 43.1573C70.1795 42.8584 70.0859 42.504 70.0124 42.0874L66.0732 42.7826ZM66.5869 44.6681C66.82 45.1732 67.1044 45.6632 67.4334 46.1384L70.7222 43.8616C70.5112 43.5568 70.3456 43.2668 70.2187 42.9919L66.5869 44.6681ZM69.0778 43H61.5178V47H69.0778V43ZM63.1659 43.8669C62.9189 43.5076 62.7743 43.2098 62.6952 42.9725L58.9004 44.2375C59.1214 44.9002 59.4568 45.5324 59.8697 46.1331L63.1659 43.8669ZM62.7303 43.0897C62.6423 42.7598 62.5683 42.3549 62.5168 41.8656L58.5388 42.2844C58.6073 42.9351 58.7133 43.5502 58.8653 44.1203L62.7303 43.0897ZM62.5253 41.9751C62.4958 41.3847 62.4661 40.7026 62.4363 39.9281L58.4393 40.0819C58.4695 40.8674 58.4998 41.5653 58.5303 42.1749L62.5253 41.9751ZM62.4364 39.931C62.4052 39.0869 62.3433 38.0548 62.2522 36.8404L58.2634 37.1396C58.3523 38.3252 58.4104 39.3031 58.4392 40.079L62.4364 39.931ZM62.2485 36.7974C62.1334 35.6075 61.7629 34.4202 60.9069 33.5071L57.9887 36.2429C58.0327 36.2898 58.2023 36.5125 58.2671 37.1826L62.2485 36.7974ZM60.9475 33.5518C60.3048 32.8234 59.5261 32.2561 58.6092 31.9183L57.2264 35.6717C57.4495 35.7539 57.6908 35.9066 57.9481 36.1982L60.9475 33.5518ZM58.6939 31.9517C57.9137 31.6232 57.0953 31.435 56.2528 31.435V35.435C56.4903 35.435 56.7819 35.4868 57.1417 35.6383L58.6939 31.9517ZM56.3703 31.4385C55.8606 31.4085 55.4479 31.39 55.1728 31.39V35.39C55.3177 35.39 55.625 35.4015 56.1354 35.4315L56.3703 31.4385ZM55.1728 31.39H49.4578V35.39H55.1728V31.39ZM47.4578 33.39V45H51.4578V33.39H47.4578ZM49.4578 43H42.0328V47H49.4578V43ZM44.0328 45V13.5H40.0328V45H44.0328ZM84.5026 13.5H86.5026V11.5H84.5026V13.5ZM85.8526 37.8L84.1885 38.9094L84.2028 38.9308L84.2177 38.9519L85.8526 37.8ZM95.5276 37.89L97.1368 39.0777L97.1434 39.0687L97.15 39.0596L95.5276 37.89ZM96.9226 13.5V11.5H94.9226V13.5H96.9226ZM104.348 13.5H106.348V11.5H104.348V13.5ZM104.258 35.145L102.263 35.0025V35.0025L104.258 35.145ZM103.718 37.845L101.809 37.2485L101.803 37.2679L101.797 37.2874L103.718 37.845ZM102.458 40.68L104.177 41.7011V41.7011L102.458 40.68ZM100.073 43.29L98.8577 41.7013L98.8462 41.7101L98.8349 41.719L100.073 43.29ZM96.2926 45.18L95.6939 43.2717L96.2926 45.18ZM85.0876 45.18L85.6863 43.2717L85.0876 45.18ZM81.2626 43.335L80.0549 44.9292L80.0663 44.9378L80.0778 44.9463L81.2626 43.335ZM78.9226 40.77L80.6423 39.7489L80.6423 39.7489L78.9226 40.77ZM77.6626 37.935L75.7373 38.4765L75.7396 38.4846L75.7419 38.4926L77.6626 37.935ZM77.1676 35.235L75.1724 35.3726L75.1727 35.3775L77.1676 35.235ZM77.0776 13.5V11.5H75.0776V13.5H77.0776ZM82.5026 13.5V31.86H86.5026V13.5H82.5026ZM82.5026 31.86C82.5026 34.6456 82.9733 37.0865 84.1885 38.9094L87.5167 36.6906C86.932 35.8135 86.5026 34.2944 86.5026 31.86H82.5026ZM84.2177 38.9519C85.6666 41.0085 88.0513 41.78 90.7126 41.78V37.78C88.7539 37.78 87.8986 37.2315 87.4876 36.6481L84.2177 38.9519ZM90.7126 41.78C93.323 41.78 95.6796 41.052 97.1368 39.0777L93.9185 36.7023C93.5157 37.248 92.6622 37.78 90.7126 37.78V41.78ZM97.15 39.0596C98.4463 37.2615 98.9226 34.7407 98.9226 31.86H94.9226C94.9226 34.4393 94.469 35.9385 93.9053 36.7204L97.15 39.0596ZM98.9226 31.86V13.5H94.9226V31.86H98.9226ZM96.9226 15.5H104.348V11.5H96.9226V15.5ZM102.348 13.5V33.075H106.348V13.5H102.348ZM102.348 33.075C102.348 33.5489 102.321 34.1869 102.263 35.0025L106.253 35.2875C106.314 34.4231 106.348 33.6811 106.348 33.075H102.348ZM102.263 35.0025C102.216 35.662 102.071 36.4084 101.809 37.2485L105.627 38.4415C105.964 37.3616 106.18 36.308 106.253 35.2875L102.263 35.0025ZM101.797 37.2874C101.581 38.0325 101.234 38.8227 100.738 39.6589L104.177 41.7011C104.821 40.6173 105.315 39.5175 105.638 38.4026L101.797 37.2874ZM100.738 39.6589C100.316 40.3688 99.7049 41.0535 98.8577 41.7013L101.288 44.8787C102.48 43.9665 103.459 42.9112 104.177 41.7011L100.738 39.6589ZM98.8349 41.719C98.0797 42.314 97.0525 42.8455 95.6939 43.2717L96.8913 47.0883C98.5927 46.5545 100.086 45.826 101.31 44.861L98.8349 41.719ZM95.6939 43.2717C94.4139 43.6733 92.7684 43.9 90.7126 43.9V47.9C93.0369 47.9 95.1113 47.6467 96.8913 47.0883L95.6939 43.2717ZM90.7126 43.9C88.6237 43.9 86.9641 43.6726 85.6863 43.2717L84.4889 47.0883C86.2711 47.6474 88.3615 47.9 90.7126 47.9V43.9ZM85.6863 43.2717C84.3132 42.8409 83.2496 42.3136 82.4474 41.7237L80.0778 44.9463C81.3156 45.8564 82.802 46.5591 84.4889 47.0883L85.6863 43.2717ZM82.4703 41.7408C81.6633 41.1294 81.0662 40.4629 80.6423 39.7489L77.2029 41.7911C77.919 42.9971 78.882 44.0406 80.0549 44.9292L82.4703 41.7408ZM80.6423 39.7489C80.1458 38.9127 79.7996 38.1225 79.5833 37.3774L75.7419 38.4926C76.0656 39.6075 76.5594 40.7073 77.2029 41.7911L80.6423 39.7489ZM79.5879 37.3935C79.3481 36.5407 79.2113 35.7755 79.1625 35.0925L75.1727 35.3775C75.2439 36.3745 75.4372 37.4093 75.7373 38.4765L79.5879 37.3935ZM79.1629 35.0974C79.1046 34.252 79.0776 33.5819 79.0776 33.075H75.0776C75.0776 33.7081 75.1107 34.478 75.1724 35.3726L79.1629 35.0974ZM79.0776 33.075V13.5H75.0776V33.075H79.0776ZM77.0776 15.5H84.5026V11.5H77.0776V15.5ZM129.871 33.75V35.75H132.656L131.766 33.1112L129.871 33.75ZM125.821 21.735L127.716 21.0962L125.842 15.5354L123.93 21.0835L125.821 21.735ZM121.681 33.75L119.79 33.0985L118.877 35.75H121.681V33.75ZM129.556 13.5L131.428 12.7966L130.941 11.5H129.556V13.5ZM141.391 45V47H144.279L143.263 44.2966L141.391 45ZM133.516 45L131.625 45.6498L132.088 47H133.516V45ZM131.491 39.105L133.383 38.4552L132.919 37.105H131.491V39.105ZM120.061 39.105V37.105H118.623L118.165 38.4682L120.061 39.105ZM118.081 45V47H119.519L119.977 45.6368L118.081 45ZM110.251 45L108.378 44.2989L107.367 47H110.251V45ZM122.041 13.5V11.5H120.654L120.168 12.7989L122.041 13.5ZM131.766 33.1112L127.716 21.0962L123.926 22.3738L127.976 34.3888L131.766 33.1112ZM123.93 21.0835L119.79 33.0985L123.572 34.4015L127.712 22.3865L123.93 21.0835ZM121.681 35.75H129.871V31.75H121.681V35.75ZM127.684 14.2034L139.519 45.7034L143.263 44.2966L131.428 12.7966L127.684 14.2034ZM141.391 43H133.516V47H141.391V43ZM135.408 44.3502L133.383 38.4552L129.6 39.7548L131.625 45.6498L135.408 44.3502ZM131.491 37.105H120.061V41.105H131.491V37.105ZM118.165 38.4682L116.185 44.3632L119.977 45.6368L121.957 39.7418L118.165 38.4682ZM118.081 43H110.251V47H118.081V43ZM112.124 45.7011L123.914 14.2011L120.168 12.7989L108.378 44.2989L112.124 45.7011ZM122.041 15.5H129.556V11.5H122.041V15.5ZM153.174 34.785H155.174V32.785H153.174V34.785ZM153.399 36.405L151.459 36.8901L151.462 36.902L151.465 36.914L153.399 36.405ZM154.299 38.025L152.8 39.3482L152.841 39.3951L152.885 39.4392L154.299 38.025ZM156.234 39.285L155.422 41.1126L155.462 41.1305L155.503 41.1465L156.234 39.285ZM161.499 39.69L161.68 41.6818L161.719 41.6782L161.758 41.6732L161.499 39.69ZM163.299 39.195L162.487 37.3674L162.467 37.3762L162.448 37.3854L163.299 39.195ZM164.604 38.205L166.177 39.4406V39.4406L164.604 38.205ZM164.379 34.47L165.874 33.1413V33.1413L164.379 34.47ZM162.489 33.165L161.624 34.968L161.667 34.9885L161.71 35.0069L162.489 33.165ZM159.924 32.31L159.425 34.2466L159.461 34.2559L159.497 34.2638L159.924 32.31ZM157.089 31.635L157.517 29.6812L157.506 29.6788L157.089 31.635ZM153.084 30.6L152.452 32.4974L152.472 32.5042L152.493 32.5106L153.084 30.6ZM149.754 28.935L148.563 30.5412L148.575 30.5502L148.587 30.559L149.754 28.935ZM147.504 26.235L145.706 27.1099L145.715 27.1294L145.725 27.1486L147.504 26.235ZM147.369 18.315L145.509 17.5807V17.5807L147.369 18.315ZM149.574 15.345L150.846 16.8889L149.574 15.345ZM153.579 13.365L154.138 15.2854L154.154 15.2807L154.17 15.2758L153.579 13.365ZM165.144 13.455L165.855 11.5854L165.144 13.455ZM168.789 15.66L167.399 17.0972L167.41 17.1082L167.421 17.1191L168.789 15.66ZM170.859 18.72L168.983 19.4114L168.991 19.433L168.999 19.4543L170.859 18.72ZM171.579 22.14V24.14H173.633L173.579 22.0874L171.579 22.14ZM164.559 22.14L162.579 22.4228L162.825 24.14H164.559V22.14ZM164.199 20.88L166.038 20.0922V20.0922L164.199 20.88ZM163.299 19.8L162.064 21.3726L162.1 21.4009L162.137 21.4275L163.299 19.8ZM161.634 19.035L161.028 20.9408L161.078 20.9569L161.13 20.9702L161.634 19.035ZM156.819 18.99L157.304 20.9303L157.337 20.9222L157.369 20.913L156.819 18.99ZM155.334 19.665L156.534 21.265L156.544 21.2577L156.554 21.2502L155.334 19.665ZM154.524 20.61L152.736 19.7156L152.705 19.7772L152.678 19.8408L154.524 20.61ZM154.884 23.445L153.373 24.7549L153.395 24.7808L153.419 24.8059L154.884 23.445ZM156.369 24.525L155.475 26.3139L155.528 26.3401L155.582 26.3633L156.369 24.525ZM158.394 25.2L157.909 27.1403L157.948 27.1499L157.986 27.158L158.394 25.2ZM160.509 25.605L160.902 23.6438L160.877 23.6389L160.852 23.6346L160.509 25.605ZM165.189 26.73L164.64 28.653L164.663 28.6596L164.686 28.6656L165.189 26.73ZM171.714 31.185L169.964 32.1524L169.979 32.18L169.995 32.2071L171.714 31.185ZM172.569 37.08L170.586 36.8213L170.581 36.8639L170.577 36.9067L172.569 37.08ZM172.029 39.285L170.163 38.567L170.151 38.5987L170.139 38.6308L172.029 39.285ZM170.769 41.625L172.384 42.805L170.769 41.625ZM168.429 43.74L169.503 45.4273L168.429 43.74ZM164.739 45.27L164.227 43.3369L164.208 43.3417L164.19 43.347L164.739 45.27ZM152.319 44.775L151.513 46.6052L151.531 46.6134L151.55 46.6212L152.319 44.775ZM148.179 41.94L146.669 43.2514L146.678 43.2614L146.687 43.2712L148.179 41.94ZM146.154 38.295L144.217 38.7907L144.222 38.8117L144.228 38.8326L146.154 38.295ZM145.659 34.785V32.785H143.659V34.785H145.659ZM151.174 34.785C151.174 35.4676 151.28 36.1744 151.459 36.8901L155.34 35.9199C155.219 35.4356 155.174 35.0624 155.174 34.785H151.174ZM151.465 36.914C151.706 37.8289 152.175 38.6405 152.8 39.3482L155.799 36.7018C155.524 36.3895 155.393 36.1211 155.334 35.896L151.465 36.914ZM152.885 39.4392C153.583 40.1369 154.453 40.6818 155.422 41.1126L157.047 37.4574C156.396 37.1682 155.976 36.8731 155.714 36.6108L152.885 39.4392ZM155.503 41.1465C156.657 41.6 158.01 41.78 159.474 41.78V37.78C158.299 37.78 157.491 37.63 156.966 37.4235L155.503 41.1465ZM159.474 41.78C160.222 41.78 160.958 41.7475 161.68 41.6818L161.318 37.6982C160.721 37.7525 160.106 37.78 159.474 37.78V41.78ZM161.758 41.6732C162.607 41.5624 163.416 41.3507 164.151 41.0046L162.448 37.3854C162.163 37.5193 161.771 37.6376 161.241 37.7068L161.758 41.6732ZM164.112 41.0226C164.917 40.6646 165.625 40.1434 166.177 39.4406L163.032 36.9694C162.924 37.1066 162.761 37.2454 162.487 37.3674L164.112 41.0226ZM166.177 39.4406C166.856 38.5769 167.099 37.5461 167.099 36.54H163.099C163.099 36.7278 163.077 36.8427 163.059 36.9038C163.05 36.9337 163.042 36.9511 163.038 36.9593C163.035 36.9636 163.034 36.9661 163.033 36.9674C163.032 36.9687 163.032 36.9692 163.032 36.9694L166.177 39.4406ZM167.099 36.54C167.099 35.2948 166.732 34.106 165.874 33.1413L162.885 35.7987C162.987 35.914 163.099 36.1052 163.099 36.54H167.099ZM165.874 33.1413C165.166 32.3441 164.276 31.749 163.269 31.3231L161.71 35.0069C162.263 35.241 162.633 35.5159 162.885 35.7987L165.874 33.1413ZM163.355 31.362C162.443 30.9241 161.437 30.5935 160.352 30.3562L159.497 34.2638C160.332 34.4465 161.036 34.6859 161.624 34.968L163.355 31.362ZM160.424 30.3734C159.47 30.1271 158.5 29.8964 157.517 29.6812L156.662 33.5888C157.598 33.7936 158.519 34.0129 159.425 34.2466L160.424 30.3734ZM157.506 29.6788C156.149 29.3902 154.873 29.06 153.676 28.6894L152.493 32.5106C153.816 32.92 155.209 33.2798 156.673 33.5912L157.506 29.6788ZM153.717 28.7026C152.625 28.3386 151.699 27.87 150.922 27.311L148.587 30.559C149.729 31.38 151.024 32.0214 152.452 32.4974L153.717 28.7026ZM150.946 27.3288C150.281 26.8355 149.724 26.1801 149.284 25.3214L145.725 27.1486C146.424 28.5099 147.368 29.6545 148.563 30.5412L150.946 27.3288ZM149.303 25.3601C148.94 24.6146 148.694 23.5041 148.694 21.915H144.694C144.694 23.8659 144.989 25.6354 145.706 27.1099L149.303 25.3601ZM148.694 21.915C148.694 20.8992 148.875 19.9489 149.23 19.0493L145.509 17.5807C144.964 18.9611 144.694 20.4108 144.694 21.915H148.694ZM149.23 19.0493C149.546 18.2492 150.066 17.5306 150.846 16.8889L148.303 13.8011C147.042 14.8394 146.093 16.1008 145.509 17.5807L149.23 19.0493ZM150.846 16.8889C151.603 16.2649 152.674 15.7113 154.138 15.2854L153.021 11.4446C151.185 11.9787 149.585 12.7451 148.303 13.8011L150.846 16.8889ZM154.17 15.2758C155.572 14.8423 157.371 14.6 159.609 14.6V10.6C157.108 10.6 154.886 10.8677 152.989 11.4542L154.17 15.2758ZM159.609 14.6C161.639 14.6 163.227 14.866 164.434 15.3246L165.855 11.5854C164.062 10.904 161.959 10.6 159.609 10.6V14.6ZM164.434 15.3246C165.739 15.8206 166.704 16.4255 167.399 17.0972L170.18 14.2228C169.014 13.0945 167.55 12.2294 165.855 11.5854L164.434 15.3246ZM167.421 17.1191C168.174 17.8243 168.679 18.5872 168.983 19.4114L172.736 18.0286C172.2 16.5728 171.325 15.2957 170.157 14.2009L167.421 17.1191ZM168.999 19.4543C169.37 20.3933 169.557 21.3031 169.58 22.1926L173.579 22.0874C173.542 20.6969 173.249 19.3267 172.72 17.9857L168.999 19.4543ZM171.579 20.14H164.559V24.14H171.579V20.14ZM166.539 21.8572C166.453 21.2505 166.282 20.6612 166.038 20.0922L162.361 21.6678C162.477 21.9388 162.546 22.1895 162.579 22.4228L166.539 21.8572ZM166.038 20.0922C165.695 19.2937 165.14 18.6571 164.462 18.1725L162.137 21.4275C162.299 21.5429 162.343 21.6263 162.361 21.6678L166.038 20.0922ZM164.535 18.2274C163.84 17.6809 163.011 17.3271 162.139 17.0998L161.13 20.9702C161.638 21.1029 161.919 21.2591 162.064 21.3726L164.535 18.2274ZM162.241 17.1291C161.32 16.8363 160.275 16.72 159.159 16.72V20.72C160.024 20.72 160.628 20.8137 161.028 20.9408L162.241 17.1291ZM159.159 16.72C158.115 16.72 157.136 16.8195 156.27 17.067L157.369 20.913C157.763 20.8005 158.344 20.72 159.159 20.72V16.72ZM156.334 17.0497C155.534 17.2498 154.771 17.5751 154.115 18.0798L156.554 21.2502C156.678 21.1549 156.905 21.0302 157.304 20.9303L156.334 17.0497ZM154.134 18.065C153.556 18.4991 153.07 19.0465 152.736 19.7156L156.313 21.5044C156.339 21.4535 156.393 21.3709 156.534 21.265L154.134 18.065ZM152.678 19.8408C152.427 20.4445 152.299 21.0809 152.299 21.735H156.299C156.299 21.6091 156.322 21.4955 156.371 21.3792L152.678 19.8408ZM152.299 21.735C152.299 22.8253 152.619 23.8844 153.373 24.7549L156.396 22.1351C156.37 22.1056 156.299 22.0247 156.299 21.735H152.299ZM153.419 24.8059C153.997 25.4288 154.696 25.9245 155.475 26.3139L157.264 22.7361C156.842 22.5255 156.552 22.3012 156.35 22.0841L153.419 24.8059ZM155.582 26.3633C156.317 26.6786 157.094 26.9365 157.909 27.1403L158.879 23.2597C158.255 23.1035 157.682 22.9114 157.157 22.6867L155.582 26.3633ZM157.986 27.158C158.727 27.3123 159.454 27.4514 160.167 27.5754L160.852 23.6346C160.185 23.5186 159.502 23.3877 158.802 23.242L157.986 27.158ZM160.117 27.5662C161.719 27.8866 163.227 28.2493 164.64 28.653L165.739 24.807C164.212 24.3707 162.599 23.9834 160.902 23.6438L160.117 27.5662ZM164.686 28.6656C166.013 29.0107 167.114 29.4877 168.016 30.0729L170.193 26.7171C168.875 25.8623 167.366 25.2293 165.693 24.7944L164.686 28.6656ZM168.016 30.0729C168.855 30.617 169.495 31.3047 169.964 32.1524L173.465 30.2176C172.673 28.7853 171.574 27.613 170.193 26.7171L168.016 30.0729ZM169.995 32.2071C170.421 32.9232 170.704 33.9515 170.704 35.415H174.704C174.704 33.4585 174.328 31.6668 173.433 30.1628L169.995 32.2071ZM170.704 35.415C170.704 35.7109 170.671 36.1693 170.586 36.8213L174.553 37.3387C174.648 36.6107 174.704 35.9591 174.704 35.415H170.704ZM170.577 36.9067C170.536 37.3764 170.409 37.9271 170.163 38.567L173.896 40.003C174.25 39.0829 174.483 38.1636 174.562 37.2533L170.577 36.9067ZM170.139 38.6308C169.944 39.194 169.627 39.7989 169.155 40.445L172.384 42.805C173.052 41.8911 173.574 40.936 173.919 39.9392L170.139 38.6308ZM169.155 40.445C168.76 40.9855 168.179 41.5286 167.356 42.0527L169.503 45.4273C170.66 44.6914 171.639 43.8245 172.384 42.805L169.155 40.445ZM167.356 42.0527C166.581 42.5454 165.553 42.9848 164.227 43.3369L165.252 47.2031C166.865 46.7752 168.297 46.1946 169.503 45.4273L167.356 42.0527ZM164.19 43.347C162.951 43.7009 161.363 43.9 159.384 43.9V47.9C161.606 47.9 163.588 47.6791 165.289 47.193L164.19 43.347ZM159.384 43.9C156.62 43.9 154.556 43.5401 153.089 42.9288L151.55 46.6212C153.683 47.5099 156.328 47.9 159.384 47.9V43.9ZM153.126 42.9448C151.542 42.247 150.423 41.4514 149.672 40.6088L146.687 43.2712C147.915 44.6486 149.556 45.743 151.513 46.6052L153.126 42.9448ZM149.689 40.6286C148.869 39.6838 148.351 38.7274 148.081 37.7574L144.228 38.8326C144.677 40.4426 145.51 41.9161 146.669 43.2514L149.689 40.6286ZM148.092 37.7993C147.793 36.6303 147.659 35.6302 147.659 34.785H143.659C143.659 36.0398 143.856 37.3797 144.217 38.7907L148.092 37.7993ZM145.659 36.785H153.174V32.785H145.659V36.785Z" fill="#333333"/>
<path d="M203.09 34.785H205.09V32.785H203.09V34.785ZM203.315 36.405L201.375 36.8901L201.378 36.902L201.381 36.914L203.315 36.405ZM204.215 38.025L202.715 39.3482L202.757 39.3951L202.801 39.4392L204.215 38.025ZM206.15 39.285L205.338 41.1126L205.378 41.1305L205.419 41.1465L206.15 39.285ZM211.415 39.69L211.596 41.6818L211.635 41.6782L211.674 41.6732L211.415 39.69ZM213.215 39.195L212.403 37.3674L212.383 37.3762L212.363 37.3854L213.215 39.195ZM214.52 38.205L216.093 39.4406L216.093 39.4406L214.52 38.205ZM214.295 34.47L215.79 33.1413L215.79 33.1413L214.295 34.47ZM212.405 33.165L211.54 34.968L211.582 34.9885L211.626 35.0069L212.405 33.165ZM209.84 32.31L209.34 34.2466L209.376 34.2559L209.413 34.2638L209.84 32.31ZM207.005 31.635L207.432 29.6812L207.421 29.6788L207.005 31.635ZM203 30.6L202.368 32.4974L202.388 32.5042L202.409 32.5106L203 30.6ZM199.67 28.935L198.478 30.5412L198.49 30.5502L198.503 30.559L199.67 28.935ZM197.42 26.235L195.622 27.1099L195.631 27.1294L195.641 27.1486L197.42 26.235ZM197.285 18.315L195.425 17.5807L195.425 17.5807L197.285 18.315ZM199.49 15.345L200.761 16.8889L199.49 15.345ZM203.495 13.365L204.054 15.2854L204.07 15.2807L204.086 15.2758L203.495 13.365ZM215.06 13.455L215.77 11.5854H215.77L215.06 13.455ZM218.705 15.66L217.314 17.0972L217.326 17.1082L217.337 17.1191L218.705 15.66ZM220.775 18.72L218.898 19.4114L218.906 19.433L218.915 19.4543L220.775 18.72ZM221.495 22.14V24.14H223.548L223.494 22.0874L221.495 22.14ZM214.475 22.14L212.495 22.4228L212.74 24.14H214.475V22.14ZM214.115 20.88L215.953 20.0922L215.953 20.0922L214.115 20.88ZM213.215 19.8L211.979 21.3726L212.015 21.4009L212.053 21.4275L213.215 19.8ZM211.55 19.035L210.944 20.9408L210.994 20.9569L211.045 20.9702L211.55 19.035ZM206.735 18.99L207.22 20.9303L207.252 20.9222L207.284 20.913L206.735 18.99ZM205.25 19.665L206.45 21.265L206.46 21.2577L206.469 21.2502L205.25 19.665ZM204.44 20.61L202.651 19.7156L202.62 19.7772L202.594 19.8408L204.44 20.61ZM204.8 23.445L203.289 24.7549L203.311 24.7808L203.334 24.8059L204.8 23.445ZM206.285 24.525L205.391 26.3139L205.443 26.3401L205.497 26.3633L206.285 24.525ZM208.31 25.2L207.825 27.1403L207.863 27.1499L207.902 27.158L208.31 25.2ZM210.425 25.605L210.817 23.6438L210.793 23.6389L210.768 23.6346L210.425 25.605ZM215.105 26.73L214.556 28.653L214.579 28.6596L214.602 28.6656L215.105 26.73ZM221.63 31.185L219.88 32.1524L219.895 32.18L219.911 32.2071L221.63 31.185ZM222.485 37.08L220.502 36.8213L220.496 36.8639L220.493 36.9067L222.485 37.08ZM221.945 39.285L220.078 38.567L220.066 38.5987L220.055 38.6308L221.945 39.285ZM220.685 41.625L222.3 42.805H222.3L220.685 41.625ZM218.345 43.74L219.419 45.4273L218.345 43.74ZM214.655 45.27L214.142 43.3369L214.124 43.3417L214.106 43.347L214.655 45.27ZM202.235 44.775L201.428 46.6052L201.447 46.6134L201.466 46.6212L202.235 44.775ZM198.095 41.94L196.585 43.2514L196.594 43.2614L196.602 43.2712L198.095 41.94ZM196.07 38.295L194.132 38.7907L194.138 38.8117L194.144 38.8326L196.07 38.295ZM195.575 34.785V32.785H193.575V34.785H195.575ZM201.09 34.785C201.09 35.4676 201.196 36.1744 201.375 36.8901L205.255 35.9199C205.134 35.4356 205.09 35.0624 205.09 34.785H201.09ZM201.381 36.914C201.622 37.8289 202.091 38.6405 202.715 39.3482L205.715 36.7018C205.439 36.3895 205.308 36.1211 205.249 35.896L201.381 36.914ZM202.801 39.4392C203.498 40.1369 204.368 40.6818 205.338 41.1126L206.962 37.4574C206.312 37.1682 205.892 36.8731 205.629 36.6108L202.801 39.4392ZM205.419 41.1465C206.573 41.6 207.925 41.78 209.39 41.78V37.78C208.215 37.78 207.407 37.63 206.881 37.4235L205.419 41.1465ZM209.39 41.78C210.138 41.78 210.873 41.7475 211.596 41.6818L211.234 37.6982C210.637 37.7525 210.022 37.78 209.39 37.78V41.78ZM211.674 41.6732C212.523 41.5624 213.331 41.3507 214.067 41.0046L212.363 37.3854C212.079 37.5193 211.687 37.6376 211.156 37.7068L211.674 41.6732ZM214.027 41.0226C214.833 40.6646 215.54 40.1434 216.093 39.4406L212.947 36.9694C212.84 37.1066 212.677 37.2454 212.403 37.3674L214.027 41.0226ZM216.093 39.4406C216.771 38.5769 217.015 37.5461 217.015 36.54H213.015C213.015 36.7278 212.992 36.8427 212.974 36.9038C212.965 36.9337 212.957 36.9511 212.953 36.9593C212.951 36.9636 212.95 36.9661 212.949 36.9674C212.948 36.9687 212.947 36.9692 212.947 36.9694L216.093 39.4406ZM217.015 36.54C217.015 35.2948 216.647 34.106 215.79 33.1413L212.8 35.7987C212.903 35.914 213.015 36.1052 213.015 36.54H217.015ZM215.79 33.1413C215.081 32.3441 214.191 31.749 213.184 31.3231L211.626 35.0069C212.179 35.241 212.549 35.5159 212.8 35.7987L215.79 33.1413ZM213.27 31.362C212.358 30.9241 211.352 30.5935 210.267 30.3562L209.413 34.2638C210.248 34.4465 210.952 34.6859 211.54 34.968L213.27 31.362ZM210.34 30.3734C209.385 30.1271 208.416 29.8964 207.432 29.6812L206.578 33.5888C207.514 33.7936 208.435 34.0129 209.34 34.2466L210.34 30.3734ZM207.421 29.6788C206.065 29.3902 204.789 29.06 203.591 28.6894L202.409 32.5106C203.731 32.92 205.125 33.2798 206.589 33.5912L207.421 29.6788ZM203.632 28.7026C202.54 28.3386 201.615 27.87 200.837 27.311L198.503 30.559C199.645 31.38 200.94 32.0214 202.368 32.4974L203.632 28.7026ZM200.862 27.3288C200.197 26.8355 199.64 26.1801 199.199 25.3214L195.641 27.1486C196.34 28.5099 197.283 29.6545 198.478 30.5412L200.862 27.3288ZM199.218 25.3601C198.856 24.6146 198.61 23.5041 198.61 21.915H194.61C194.61 23.8659 194.904 25.6354 195.622 27.1099L199.218 25.3601ZM198.61 21.915C198.61 20.8992 198.79 19.9489 199.145 19.0493L195.425 17.5807C194.88 18.9611 194.61 20.4108 194.61 21.915H198.61ZM199.145 19.0493C199.461 18.2492 199.982 17.5306 200.761 16.8889L198.219 13.8011C196.958 14.8394 196.009 16.1008 195.425 17.5807L199.145 19.0493ZM200.761 16.8889C201.519 16.2649 202.59 15.7113 204.054 15.2854L202.936 11.4446C201.1 11.9787 199.501 12.7451 198.219 13.8011L200.761 16.8889ZM204.086 15.2758C205.488 14.8423 207.286 14.6 209.525 14.6V10.6C207.024 10.6 204.802 10.8677 202.904 11.4542L204.086 15.2758ZM209.525 14.6C211.555 14.6 213.143 14.866 214.35 15.3246L215.77 11.5854C213.977 10.904 211.875 10.6 209.525 10.6V14.6ZM214.35 15.3246C215.655 15.8206 216.62 16.4255 217.314 17.0972L220.096 14.2228C218.93 13.0945 217.465 12.2294 215.77 11.5854L214.35 15.3246ZM217.337 17.1191C218.089 17.8243 218.595 18.5872 218.898 19.4114L222.652 18.0286C222.115 16.5728 221.241 15.2957 220.073 14.2009L217.337 17.1191ZM218.915 19.4543C219.285 20.3933 219.472 21.3031 219.496 22.1926L223.494 22.0874C223.458 20.6969 223.165 19.3267 222.635 17.9857L218.915 19.4543ZM221.495 20.14H214.475V24.14H221.495V20.14ZM216.455 21.8572C216.368 21.2505 216.197 20.6612 215.953 20.0922L212.277 21.6678C212.393 21.9388 212.462 22.1895 212.495 22.4228L216.455 21.8572ZM215.953 20.0922C215.611 19.2937 215.056 18.6571 214.377 18.1725L212.053 21.4275C212.214 21.5429 212.259 21.6263 212.277 21.6678L215.953 20.0922ZM214.451 18.2274C213.755 17.6809 212.926 17.3271 212.055 17.0998L211.045 20.9702C211.554 21.1029 211.835 21.2591 211.979 21.3726L214.451 18.2274ZM212.156 17.1291C211.236 16.8363 210.19 16.72 209.075 16.72V20.72C209.94 20.72 210.544 20.8137 210.944 20.9408L212.156 17.1291ZM209.075 16.72C208.03 16.72 207.052 16.8195 206.186 17.067L207.284 20.913C207.678 20.8005 208.26 20.72 209.075 20.72V16.72ZM206.25 17.0497C205.45 17.2498 204.687 17.5751 204.031 18.0798L206.469 21.2502C206.593 21.1549 206.82 21.0302 207.22 20.9303L206.25 17.0497ZM204.05 18.065C203.471 18.4991 202.986 19.0465 202.651 19.7156L206.229 21.5044C206.254 21.4535 206.309 21.3709 206.45 21.265L204.05 18.065ZM202.594 19.8408C202.342 20.4445 202.215 21.0809 202.215 21.735H206.215C206.215 21.6091 206.238 21.4955 206.286 21.3792L202.594 19.8408ZM202.215 21.735C202.215 22.8253 202.534 23.8844 203.289 24.7549L206.311 22.1351C206.286 22.1056 206.215 22.0247 206.215 21.735H202.215ZM203.334 24.8059C203.913 25.4288 204.612 25.9245 205.391 26.3139L207.179 22.7361C206.758 22.5255 206.467 22.3012 206.266 22.0841L203.334 24.8059ZM205.497 26.3633C206.233 26.6786 207.01 26.9365 207.825 27.1403L208.795 23.2597C208.17 23.1035 207.597 22.9114 207.073 22.6867L205.497 26.3633ZM207.902 27.158C208.643 27.3123 209.369 27.4514 210.082 27.5754L210.768 23.6346C210.101 23.5186 209.417 23.3877 208.718 23.242L207.902 27.158ZM210.033 27.5662C211.635 27.8866 213.142 28.2493 214.556 28.653L215.654 24.807C214.128 24.3707 212.515 23.9834 210.817 23.6438L210.033 27.5662ZM214.602 28.6656C215.929 29.0107 217.029 29.4877 217.932 30.0729L220.108 26.7171C218.791 25.8623 217.281 25.2293 215.608 24.7944L214.602 28.6656ZM217.932 30.0729C218.77 30.617 219.411 31.3047 219.88 32.1524L223.38 30.2176C222.589 28.7853 221.49 27.613 220.108 26.7171L217.932 30.0729ZM219.911 32.2071C220.337 32.9232 220.62 33.9515 220.62 35.415H224.62C224.62 33.4585 224.243 31.6668 223.349 30.1628L219.911 32.2071ZM220.62 35.415C220.62 35.7109 220.587 36.1693 220.502 36.8213L224.468 37.3387C224.563 36.6107 224.62 35.9591 224.62 35.415H220.62ZM220.493 36.9067C220.452 37.3764 220.324 37.9271 220.078 38.567L223.812 40.003C224.166 39.0829 224.398 38.1636 224.477 37.2533L220.493 36.9067ZM220.055 38.6308C219.86 39.194 219.542 39.7989 219.07 40.445L222.3 42.805C222.968 41.8911 223.49 40.936 223.835 39.9392L220.055 38.6308ZM219.07 40.445C218.675 40.9855 218.095 41.5286 217.271 42.0527L219.419 45.4273C220.575 44.6914 221.555 43.8245 222.3 42.805L219.07 40.445ZM217.271 42.0527C216.497 42.5454 215.469 42.9848 214.142 43.3369L215.168 47.2031C216.781 46.7752 218.213 46.1946 219.419 45.4273L217.271 42.0527ZM214.106 43.347C212.867 43.7009 211.278 43.9 209.3 43.9V47.9C211.522 47.9 213.503 47.6791 215.204 47.193L214.106 43.347ZM209.3 43.9C206.536 43.9 204.471 43.5401 203.004 42.9288L201.466 46.6212C203.599 47.5099 206.244 47.9 209.3 47.9V43.9ZM203.042 42.9448C201.458 42.247 200.339 41.4514 199.588 40.6088L196.602 43.2712C197.831 44.6486 199.472 45.743 201.428 46.6052L203.042 42.9448ZM199.605 40.6286C198.785 39.6838 198.267 38.7274 197.996 37.7574L194.144 38.8326C194.593 40.4426 195.425 41.9161 196.585 43.2514L199.605 40.6286ZM198.008 37.7993C197.709 36.6303 197.575 35.6302 197.575 34.785H193.575C193.575 36.0398 193.771 37.3797 194.132 38.7907L198.008 37.7993ZM195.575 36.785H203.09V32.785H195.575V36.785ZM246.643 33.75V35.75H249.428L248.539 33.1112L246.643 33.75ZM242.593 21.735L244.489 21.0962L242.614 15.5354L240.702 21.0835L242.593 21.735ZM238.453 33.75L236.562 33.0985L235.649 35.75H238.453V33.75ZM246.328 13.5L248.201 12.7966L247.713 11.5H246.328V13.5ZM258.163 45V47H261.051L260.036 44.2966L258.163 45ZM250.288 45L248.397 45.6498L248.861 47H250.288V45ZM248.263 39.105L250.155 38.4552L249.691 37.105H248.263V39.105ZM236.833 39.105V37.105H235.395L234.937 38.4682L236.833 39.105ZM234.853 45V47H236.291L236.749 45.6368L234.853 45ZM227.023 45L225.15 44.2989L224.139 47H227.023V45ZM238.813 13.5V11.5H237.426L236.94 12.7989L238.813 13.5ZM248.539 33.1112L244.489 21.0962L240.698 22.3738L244.748 34.3888L248.539 33.1112ZM240.702 21.0835L236.562 33.0985L240.344 34.4015L244.484 22.3865L240.702 21.0835ZM238.453 35.75H246.643V31.75H238.453V35.75ZM244.456 14.2034L256.291 45.7034L260.036 44.2966L248.201 12.7966L244.456 14.2034ZM258.163 43H250.288V47H258.163V43ZM252.18 44.3502L250.155 38.4552L246.372 39.7548L248.397 45.6498L252.18 44.3502ZM248.263 37.105H236.833V41.105H248.263V37.105ZM234.937 38.4682L232.957 44.3632L236.749 45.6368L238.729 39.7418L234.937 38.4682ZM234.853 43H227.023V47H234.853V43ZM228.896 45.7011L240.686 14.2011L236.94 12.7989L225.15 44.2989L228.896 45.7011ZM238.813 15.5H246.328V11.5H238.813V15.5ZM287.047 26.01H289.047V24.01H287.047V26.01ZM287.047 31.815V33.815H289.047V31.815H287.047ZM271.657 31.815V29.815H269.657V31.815H271.657ZM271.657 38.88H269.657V40.88H271.657V38.88ZM289.567 38.88H291.567V36.88H289.567V38.88ZM289.567 45V47H291.567V45H289.567ZM264.232 45H262.232V47H264.232V45ZM264.232 13.5V11.5H262.232V13.5H264.232ZM289.117 13.5H291.117V11.5H289.117V13.5ZM289.117 19.62V21.62H291.117V19.62H289.117ZM271.657 19.62V17.62H269.657V19.62H271.657ZM271.657 26.01H269.657V28.01H271.657V26.01ZM285.047 26.01V31.815H289.047V26.01H285.047ZM287.047 29.815H271.657V33.815H287.047V29.815ZM269.657 31.815V38.88H273.657V31.815H269.657ZM271.657 40.88H289.567V36.88H271.657V40.88ZM287.567 38.88V45H291.567V38.88H287.567ZM289.567 43H264.232V47H289.567V43ZM266.232 45V13.5H262.232V45H266.232ZM264.232 15.5H289.117V11.5H264.232V15.5ZM287.117 13.5V19.62H291.117V13.5H287.117ZM289.117 17.62H271.657V21.62H289.117V17.62ZM269.657 19.62V26.01H273.657V19.62H269.657ZM271.657 28.01H287.047V24.01H271.657V28.01ZM321.756 13.5H323.756V11.5H321.756V13.5ZM321.756 19.215L323.298 20.4888L323.756 19.9342V19.215H321.756ZM305.511 38.88L303.969 37.6062L301.264 40.88H305.511V38.88ZM322.791 38.88H324.791V36.88H322.791V38.88ZM322.791 45V47H324.791V45H322.791ZM296.466 45H294.466V47H296.466V45ZM296.466 38.43L294.939 37.1375L294.466 37.6969V38.43H296.466ZM312.396 19.62L313.922 20.9125L316.71 17.62H312.396V19.62ZM297.276 19.62H295.276V21.62H297.276V19.62ZM297.276 13.5V11.5H295.276V13.5H297.276ZM319.756 13.5V19.215H323.756V13.5H319.756ZM320.214 17.9412L303.969 37.6062L307.053 40.1538L323.298 20.4888L320.214 17.9412ZM305.511 40.88H322.791V36.88H305.511V40.88ZM320.791 38.88V45H324.791V38.88H320.791ZM322.791 43H296.466V47H322.791V43ZM298.466 45V38.43H294.466V45H298.466ZM297.992 39.7225L313.922 20.9125L310.869 18.3275L294.939 37.1375L297.992 39.7225ZM312.396 17.62H297.276V21.62H312.396V17.62ZM299.276 19.62V13.5H295.276V19.62H299.276ZM297.276 15.5H321.756V11.5H297.276V15.5Z" fill="#E20D24"/>
</svg>
