<svg width="25" height="8" viewBox="0 0 25 8" fill="none" xmlns="http://www.w3.org/2000/svg">
<path fill-rule="evenodd" clip-rule="evenodd" d="M0.146461 4.03556L3.32844 7.21754C3.5237 7.4128 3.84029 7.4128 4.03555 7.21754C4.23081 7.02228 4.23081 6.7057 4.03555 6.51043L1.70712 4.18201L12.5 4.18201L23.2929 4.18201L20.9645 6.51043C20.7692 6.7057 20.7692 7.02228 20.9645 7.21754C21.1597 7.4128 21.4763 7.4128 21.6716 7.21754L24.8536 4.03556C25.0488 3.8403 25.0488 3.52371 24.8536 3.32845L21.6716 0.146472C21.4763 -0.04879 21.1597 -0.04879 20.9645 0.146472C20.7692 0.341734 20.7692 0.658317 20.9645 0.853579L23.2929 3.18201L12.5 3.18201L1.70712 3.18201L4.03555 0.853579C4.23081 0.658317 4.23081 0.341734 4.03555 0.146472C3.84029 -0.04879 3.5237 -0.04879 3.32844 0.146472L0.146462 3.32845C-0.0488005 3.52371 -0.0488005 3.8403 0.146461 4.03556Z" fill="#333333"/>
</svg>
