<svg width="55" height="33" viewBox="0 0 55 33"  xmlns="http://www.w3.org/2000/svg">
<path d="M45.6385 18.8555C44.7494 17.7326 45.0037 17.233 45.6385 16.2293C45.65 16.2178 52.9902 6.07488 53.7465 2.63509L53.751 2.6328C54.1269 1.37926 53.751 0.458008 51.9337 0.458008H45.9204C44.3896 0.458008 43.6837 1.24863 43.3056 2.13322C43.3056 2.13322 40.244 9.46197 35.9127 14.2126C34.5148 15.5853 33.8685 16.0253 33.1054 16.0253C32.7296 16.0253 32.1452 15.5853 32.1452 14.3318V2.6328C32.1452 1.12947 31.7167 0.458008 30.4494 0.458008H20.994C20.0337 0.458008 19.4631 1.15926 19.4631 1.81238C19.4631 3.2378 21.6287 3.56551 21.8533 7.57592V16.2774C21.8533 18.184 21.5073 18.5347 20.7396 18.5347C18.6954 18.5347 13.734 11.1761 10.7937 2.75426C10.2002 1.1203 9.62042 0.460299 8.07812 0.460299H2.0625C0.346042 0.460299 0 1.25092 0 2.13551C0 3.69842 2.04417 11.4695 9.50583 21.7361C14.4787 28.7441 21.4821 32.5413 27.8529 32.5413C31.6823 32.5413 32.1498 31.698 32.1498 30.2474C32.1498 23.5511 31.8037 22.9186 33.7219 22.9186C34.611 22.9186 36.1419 23.3586 39.7169 26.7388C43.8029 30.747 44.4744 32.5413 46.7615 32.5413H52.7748C54.489 32.5413 55.3575 31.698 54.8579 30.0343C53.7144 26.5349 45.9869 19.3368 45.6385 18.8555Z" />
</svg>
