<svg width="25" height="25" viewBox="0 0 25 25" fill="none" xmlns="http://www.w3.org/2000/svg">
<g clip-path="url(#clip0_7_66)">
<path d="M19.9347 7.97506C19.9116 7.43373 19.4654 7.00685 18.9235 7.00737H15.7106C17.2372 5.22925 17.0327 2.55007 15.2544 1.02345C13.4763 -0.502995 10.7971 -0.298444 9.27049 1.47985C7.90596 3.06982 7.90596 5.4174 9.27049 7.00685H6.05759C5.51574 7.00651 5.06953 7.43322 5.0464 7.97471L1.89167 23.9082C1.88873 23.9386 1.88873 23.9697 1.89167 24.0001C1.89167 24.5585 2.34444 25.0114 2.90285 25.0114H22.0928C22.6512 25.0114 23.1041 24.5585 23.1041 24.0001C23.1069 23.9695 23.1069 23.9386 23.1041 23.9082L19.9347 7.97506ZM9.21733 4.29298C9.21474 2.48379 10.6796 1.01534 12.4886 1.01275C14.2978 1.01033 15.7664 2.47516 15.7688 4.28418C15.7702 5.39859 15.205 6.43687 14.2688 7.04138H10.7172C9.78627 6.43653 9.22199 5.40342 9.21733 4.29298ZM22.0928 24.0443H2.89319C2.8811 24.0505 2.8666 24.0505 2.85452 24.0443L6.00925 8.1494C6.01219 8.11885 6.01219 8.08795 6.00925 8.0574C6.00925 8.03323 6.02859 8.0139 6.05275 8.0139H18.9284C18.9525 8.0139 18.9719 8.03323 18.9719 8.0574C18.9689 8.08795 18.9689 8.11885 18.9719 8.1494L22.1266 24.0443C22.1161 24.0486 22.1035 24.0486 22.0928 24.0443Z" fill="#333333"/>
<path d="M12.4929 6.35906C13.6475 6.35906 14.5833 5.42331 14.5833 4.26885C14.5833 3.11422 13.6475 2.17847 12.4929 2.17847C11.3384 2.17847 10.4027 3.11422 10.4027 4.26885C10.4027 4.27696 10.4027 4.28473 10.4027 4.29302C10.4158 5.43781 11.3478 6.35906 12.4929 6.35906ZM12.4929 3.14633C13.1128 3.14633 13.6156 3.64898 13.6151 4.26937C13.6146 4.88975 13.1124 5.39189 12.492 5.39137C11.8813 5.39137 11.383 4.90321 11.3699 4.29302C11.3564 3.67332 11.848 3.15996 12.4679 3.14684C12.4765 3.14633 12.4848 3.14633 12.4929 3.14633Z" fill="#333333"/>
</g>
<defs>
<clipPath id="clip0_7_66">
<rect width="25" height="25" fill="white"/>
</clipPath>
</defs>
</svg>
